<svg width="131" height="131" viewBox="0 0 131 131" fill="none" xmlns="http://www.w3.org/2000/svg">
<circle cx="66" cy="66" r="55.5" fill="white" stroke="#065C61"/>
<circle cx="65.5" cy="65.5" r="65" stroke="#065C61"/>
<path d="M64.12 81L63.36 54.52H68.96L69.72 81H64.12ZM61.92 51.96L61.24 49.16C62.1733 49 62.8667 48.8667 63.32 48.76C63.8 48.6533 64.3067 48.5333 64.84 48.4L64.44 49.4C63.7467 49.16 63.08 48.6933 62.44 48C61.8267 47.28 61.52 46.4667 61.52 45.56C61.52 44.6 61.7333 43.8267 62.16 43.24C62.5867 42.6533 63.1333 42.2267 63.8 41.96C64.4667 41.6933 65.16 41.56 65.88 41.56C66.28 41.56 66.6533 41.5867 67 41.64C67.3733 41.6933 67.7067 41.7733 68 41.88L67.68 44.76C67.4133 44.7067 67.1467 44.6533 66.88 44.6C66.6133 44.5467 66.32 44.52 66 44.52C65.6533 44.52 65.3333 44.64 65.04 44.88C64.7733 45.0933 64.64 45.36 64.64 45.68C64.64 46.1333 64.8 46.5333 65.12 46.88C65.44 47.2267 65.8133 47.5067 66.24 47.72C66.6933 47.9067 67.0667 48.0133 67.36 48.04L65.16 48.28C65.88 48.0933 66.56 47.9067 67.2 47.72C67.84 47.5067 68.44 47.2933 69 47.08L69.8 49.76C69.1333 50 68.3467 50.2667 67.44 50.56C66.56 50.8267 65.64 51.08 64.68 51.32C63.7467 51.56 62.8267 51.7733 61.92 51.96Z" fill="#065C61"/>
</svg>
