<svg width="60" height="60" viewBox="0 0 60 60" fill="none" xmlns="http://www.w3.org/2000/svg">
<circle cx="30" cy="30" r="30" fill="white"/>
<path d="M25.68 40.432C25.392 39.312 25.144 38.264 24.936 37.288C24.744 36.328 24.6 35.456 24.504 34.672C24.408 33.904 24.36 33.248 24.36 32.704C24.36 31.584 24.544 30.648 24.912 29.896C25.296 29.144 25.8 28.544 26.424 28.096C27.064 27.632 27.76 27.304 28.512 27.112C29.264 26.904 30.016 26.8 30.768 26.8C31.536 26.8 32.24 26.864 32.88 26.992C32.912 26.496 32.872 26.048 32.76 25.648C32.664 25.248 32.512 24.904 32.304 24.616C32.112 24.328 31.872 24.104 31.584 23.944C31.312 23.784 31.016 23.704 30.696 23.704C30.392 23.704 30.088 23.784 29.784 23.944C29.48 24.088 29.192 24.304 28.92 24.592C28.664 24.88 28.416 25.248 28.176 25.696L25.56 24.256C25.992 23.28 26.504 22.512 27.096 21.952C27.688 21.376 28.304 20.968 28.944 20.728C29.6 20.472 30.24 20.344 30.864 20.344C31.824 20.344 32.648 20.552 33.336 20.968C34.04 21.368 34.608 21.896 35.04 22.552C35.472 23.192 35.792 23.88 36 24.616C36.208 25.352 36.312 26.056 36.312 26.728C36.312 27.24 36.256 27.752 36.144 28.264C36.048 28.76 35.928 29.208 35.784 29.608C35.656 30.008 35.528 30.32 35.4 30.544C34.52 30.304 33.688 30.128 32.904 30.016C32.12 29.904 31.408 29.872 30.768 29.92C30.144 29.952 29.6 30.08 29.136 30.304C28.688 30.512 28.336 30.824 28.08 31.24C27.84 31.656 27.72 32.184 27.72 32.824C27.72 33.416 27.768 34.088 27.864 34.84C27.96 35.608 28.096 36.4 28.272 37.216C28.448 38.032 28.648 38.84 28.872 39.64L25.68 40.432Z" fill="#065C61"/>
</svg>
