<svg width="45" height="45" viewBox="0 0 45 45" fill="none" xmlns="http://www.w3.org/2000/svg">
<circle cx="22.5" cy="22.5" r="22" fill="white" stroke="#C7C7C7"/>
<path d="M21.248 28L20.944 17.408H23.184L23.488 28H21.248ZM20.368 16.384L20.096 15.264C20.4693 15.2 20.7467 15.1467 20.928 15.104C21.12 15.0613 21.3227 15.0133 21.536 14.96L21.376 15.36C21.0987 15.264 20.832 15.0773 20.576 14.8C20.3307 14.512 20.208 14.1867 20.208 13.824C20.208 13.44 20.2933 13.1307 20.464 12.896C20.6347 12.6613 20.8533 12.4907 21.12 12.384C21.3867 12.2773 21.664 12.224 21.952 12.224C22.112 12.224 22.2613 12.2347 22.4 12.256C22.5493 12.2773 22.6827 12.3093 22.8 12.352L22.672 13.504C22.5653 13.4827 22.4587 13.4613 22.352 13.44C22.2453 13.4187 22.128 13.408 22 13.408C21.8613 13.408 21.7333 13.456 21.616 13.552C21.5093 13.6373 21.456 13.744 21.456 13.872C21.456 14.0533 21.52 14.2133 21.648 14.352C21.776 14.4907 21.9253 14.6027 22.096 14.688C22.2773 14.7627 22.4267 14.8053 22.544 14.816L21.664 14.912C21.952 14.8373 22.224 14.7627 22.48 14.688C22.736 14.6027 22.976 14.5173 23.2 14.432L23.52 15.504C23.2533 15.6 22.9387 15.7067 22.576 15.824C22.224 15.9307 21.856 16.032 21.472 16.128C21.0987 16.224 20.7307 16.3093 20.368 16.384Z" fill="#065C61"/>
</svg>
