<svg width="235" height="228" viewBox="0 0 235 228" fill="none" xmlns="http://www.w3.org/2000/svg">
<path d="M117.387 227.658C182.217 227.658 234.773 197.315 234.773 159.885C234.773 122.454 182.217 92.1113 117.387 92.1113C52.5557 92.1113 0 122.454 0 159.885C0 197.315 52.5557 227.658 117.387 227.658Z" fill="#F0F0F0"/>
<path d="M28.2402 184.019L7.99242 172.355C6.85149 171.693 6.85149 170.626 7.99242 169.969L125.773 101.946C126.413 101.62 127.121 101.449 127.84 101.449C128.559 101.449 129.268 101.62 129.908 101.946L150.156 113.635C151.297 114.292 151.297 115.363 150.156 116.021L32.3755 184.019C31.7345 184.343 31.0262 184.512 30.3079 184.512C29.5895 184.512 28.8812 184.343 28.2402 184.019Z" fill="#E0E0E0"/>
<path d="M115.276 188.856L66.644 160.781L127.417 125.761L175.989 153.801L115.276 188.856Z" fill="#E0E0E0"/>
<path d="M182.416 201.377C195.112 201.377 205.404 195.435 205.404 188.104C205.404 180.774 195.112 174.832 182.416 174.832C169.72 174.832 159.428 180.774 159.428 188.104C159.428 195.435 169.72 201.377 182.416 201.377Z" fill="#E0E0E0"/>
<path d="M213.261 172.121C215.752 173.561 215.752 175.893 213.261 177.333C210.77 178.773 206.729 178.768 204.238 177.333C201.747 175.898 201.747 173.561 204.238 172.121C206.729 170.682 210.77 170.682 213.261 172.121Z" fill="#E0E0E0"/>
<path d="M101.021 163.183L118.429 153.119C120.222 152.082 121.119 150.727 121.119 149.367C121.119 148.007 121.119 146.946 121.119 146.946L103.059 136.762C102.555 136.435 102.136 135.994 101.835 135.474C101.534 134.955 101.359 134.372 101.325 133.773V112.304L70.9331 129.872V151.33C70.9681 151.929 71.1432 152.512 71.4444 153.031C71.7455 153.55 72.1642 153.991 72.6669 154.319L88.0322 163.168C91.6144 165.255 97.4336 165.255 101.021 163.183Z" fill="#065C61"/>
<g opacity="0.6">
<path d="M101.021 163.183L118.429 153.119C120.222 152.082 121.119 150.727 121.119 149.367C121.119 148.007 121.119 146.946 121.119 146.946L103.059 136.762C102.555 136.435 102.136 135.994 101.835 135.474C101.534 134.955 101.359 134.372 101.325 133.773V112.304L70.9331 129.872V151.33C70.9681 151.929 71.1432 152.512 71.4444 153.031C71.7455 153.55 72.1642 153.991 72.6669 154.319L88.0322 163.168C91.6144 165.255 97.4336 165.255 101.021 163.183Z" fill="black"/>
</g>
<path opacity="0.3" d="M78.2322 155.132V157.543L72.6571 154.329C72.1545 154.002 71.7361 153.56 71.4357 153.041C71.1354 152.522 70.9615 151.939 70.9282 151.34V129.872L76.7176 126.519C76.8372 128.013 76.9717 129.508 77.0912 131.003L73.0257 133.354V150.119C73.058 150.719 73.232 151.303 73.5333 151.822C73.8347 152.342 74.2549 152.783 74.7596 153.109L78.2322 155.132Z" fill="black"/>
<path d="M73.0259 150.125C73.0601 150.724 73.2349 151.307 73.5361 151.826C73.8373 152.346 74.2565 152.787 74.7597 153.114L88.0224 160.757C91.6096 162.824 97.4289 162.829 101.021 160.757L118.459 150.693C122.051 148.62 122.051 145.262 118.459 143.189L105.191 135.547C104.688 135.22 104.268 134.779 103.967 134.259C103.666 133.74 103.491 133.157 103.457 132.557V115.787L73.0657 133.354L73.0259 150.125Z" fill="#065C61"/>
<path opacity="0.3" d="M73.0259 150.125C73.0601 150.724 73.2349 151.307 73.5361 151.826C73.8373 152.346 74.2565 152.787 74.7597 153.114L88.0224 160.757C91.6096 162.824 97.4289 162.829 101.021 160.757L118.459 150.693C122.051 148.62 122.051 145.262 118.459 143.189L105.191 135.547C104.688 135.22 104.268 134.779 103.967 134.259C103.666 133.74 103.491 133.157 103.457 132.557V115.787L73.0657 133.354L73.0259 150.125Z" fill="black"/>
<path opacity="0.5" d="M108.693 137.594L105.166 135.557C104.662 135.23 104.243 134.789 103.941 134.269C103.64 133.75 103.466 133.167 103.432 132.567V115.787L73.04 133.354V150.125C73.0743 150.724 73.2491 151.307 73.5503 151.826C73.8514 152.346 74.2706 152.787 74.7739 153.114L78.2614 155.107L108.693 137.594Z" fill="black"/>
<path d="M121.124 146.946V149.367C121.124 150.727 120.222 152.078 118.434 153.119L100.996 163.178C99.0875 164.197 96.9561 164.726 94.793 164.717V162.306C96.9561 162.314 99.0875 161.785 100.996 160.767L118.434 150.697C120.222 149.671 121.124 148.311 121.124 146.946Z" fill="#065C61"/>
<path opacity="0.5" d="M121.124 146.946V149.367C121.124 150.727 120.222 152.078 118.434 153.119L100.996 163.178C99.0875 164.197 96.9561 164.726 94.793 164.717V162.306C96.9561 162.314 99.0875 161.785 100.996 160.767L118.434 150.697C120.222 149.671 121.124 148.311 121.124 146.946Z" fill="black"/>
<path d="M24.2094 170.965C24.8664 171.282 25.5888 171.441 26.3183 171.428C27.0478 171.415 27.7641 171.231 28.4094 170.89L145.99 103.007C146.621 102.596 147.145 102.042 147.522 101.39C147.899 100.739 148.116 100.007 148.158 99.2557V4.13484C148.129 3.40659 147.93 2.69517 147.576 2.05814C147.222 1.4211 146.723 0.876339 146.12 0.467913C145.464 0.150223 144.742 -0.00813224 144.013 0.00571926C143.284 0.0195708 142.568 0.205238 141.925 0.547629L24.3439 68.4256C23.7139 68.8357 23.1897 69.3889 22.814 70.0399C22.4382 70.691 22.2216 71.4216 22.1816 72.1723V167.293C22.2078 168.021 22.405 168.733 22.7573 169.371C23.1095 170.009 23.607 170.555 24.2094 170.965Z" fill="#065C61"/>
<path d="M28.409 170.885L145.99 103.002C146.621 102.591 147.145 102.038 147.522 101.386C147.899 100.734 148.116 100.002 148.157 99.2508V4.13486C148.157 2.75478 147.186 2.19179 145.99 2.88432L28.409 70.7673C27.7782 71.1782 27.2533 71.7321 26.8767 72.3839C26.5001 73.0358 26.2826 73.7673 26.2417 74.5189V169.635C26.2417 171.015 27.2132 171.578 28.409 170.885Z" fill="#065C61"/>
<path opacity="0.5" d="M28.409 170.885L145.99 103.002C146.621 102.591 147.145 102.038 147.522 101.386C147.899 100.734 148.116 100.002 148.157 99.2508V4.13486C148.157 2.75478 147.186 2.19179 145.99 2.88432L28.409 70.7673C27.7782 71.1782 27.2533 71.7321 26.8767 72.3839C26.5001 73.0358 26.2826 73.7673 26.2417 74.5189V169.635C26.2417 171.015 27.2132 171.578 28.409 170.885Z" fill="black"/>
<path d="M28.0907 173.352C27.4761 173.619 26.8112 173.75 26.1414 173.736C25.4715 173.722 24.8126 173.564 24.2095 173.272C23.6051 172.861 23.1061 172.314 22.7529 171.674C22.3997 171.034 22.2023 170.32 22.1768 169.59V160.936L26.2373 163.288V171.947C26.2373 173.207 27.0394 173.78 28.0907 173.352Z" fill="#065C61"/>
<path opacity="0.5" d="M28.0907 173.352C27.4761 173.619 26.8112 173.75 26.1414 173.736C25.4715 173.722 24.8126 173.564 24.2095 173.272C23.6051 172.861 23.1061 172.314 22.7529 171.674C22.3997 171.034 22.2023 170.32 22.1768 169.59V160.936L26.2373 163.288V171.947C26.2373 173.207 27.0394 173.78 28.0907 173.352Z" fill="black"/>
<path d="M26.2373 163.287V171.946C26.2373 173.327 27.2338 173.885 28.4046 173.197L145.985 105.314C146.616 104.903 147.141 104.349 147.517 103.697C147.894 103.045 148.111 102.314 148.153 101.562V92.8833L26.2373 163.287Z" fill="#065C61"/>
<path opacity="0.3" d="M26.2417 163.267V171.946C26.2417 173.327 27.2381 173.885 28.409 173.197L145.99 105.314C146.62 104.903 147.145 104.349 147.522 103.697C147.898 103.045 148.116 102.314 148.157 101.562V92.8833L26.2417 163.267Z" fill="black"/>
<path d="M30.3032 152.426V75.8644C30.3272 75.4144 30.457 74.9763 30.6821 74.5859C30.9071 74.1955 31.2212 73.8636 31.5986 73.6174L142.787 9.4362C143.505 9.02268 144.088 9.35649 144.088 10.1835V86.7306C144.063 87.1819 143.933 87.621 143.707 88.0124C143.481 88.4037 143.166 88.7361 142.787 88.9826L31.6086 153.174C30.8861 153.587 30.3032 153.248 30.3032 152.426Z" fill="#065C61"/>
<path d="M30.3032 152.426V75.8644C30.3272 75.4144 30.457 74.9763 30.6821 74.5859C30.9071 74.1955 31.2212 73.8636 31.5986 73.6174L142.787 9.4362C143.505 9.02268 144.088 9.35649 144.088 10.1835V86.7306C144.063 87.1819 143.933 87.621 143.707 88.0124C143.481 88.4037 143.166 88.7361 142.787 88.9826L31.6086 153.174C30.8861 153.587 30.3032 153.248 30.3032 152.426Z" fill="#263238"/>
<path opacity="0.7" d="M26.88 72.3768C26.4939 73.0258 26.2732 73.7598 26.2373 74.5142V163.288L22.1768 160.936V72.1725C22.2035 71.4173 22.4231 70.6815 22.8145 70.0352L26.88 72.3768Z" fill="black"/>
<path opacity="0.3" d="M148.133 3.77627C147.978 2.66025 147.076 2.25669 145.985 2.87947L28.4095 70.7674C27.772 71.1662 27.2458 71.7198 26.88 72.3767L22.8145 70.0301C23.1827 69.3733 23.7105 68.8199 24.349 68.4208L141.93 0.5428C142.574 0.200362 143.291 0.0146866 144.02 0.000836263C144.75 -0.013014 145.473 0.145351 146.13 0.463084C146.681 0.839927 147.145 1.3307 147.491 1.90227C147.836 2.47384 148.055 3.11289 148.133 3.77627Z" fill="black"/>
<path d="M39.3837 90.5223C39.0864 90.3164 38.8414 90.0438 38.6684 89.7263C38.4954 89.4088 38.3991 89.0552 38.3872 88.6938V80.2689C38.4087 79.8946 38.5177 79.5306 38.7055 79.2061C38.8933 78.8816 39.1546 78.6057 39.4684 78.4005L150.119 14.5033C150.43 14.3072 150.79 14.1998 151.158 14.1928C151.526 14.1857 151.889 14.2792 152.208 14.4632C152.526 14.6473 152.789 14.9148 152.967 15.2371C153.145 15.5593 153.232 15.9241 153.218 16.292V24.7119C153.2 25.0864 153.093 25.4512 152.905 25.7761C152.718 26.101 152.456 26.3766 152.142 26.5803L41.4712 90.4824C41.151 90.6532 40.795 90.7458 40.4322 90.7527C40.0694 90.7596 39.7101 90.6807 39.3837 90.5223Z" fill="#065C61"/>
<path opacity="0.4" d="M153.208 16.1175C153.133 15.5595 152.68 15.3552 152.142 15.6691L41.4716 79.5713C41.1552 79.7738 40.8934 80.0509 40.7093 80.3784L38.6865 79.1876C38.8691 78.8591 39.1312 78.5815 39.4488 78.3805L150.119 14.5032C150.416 14.3075 150.76 14.1949 151.115 14.1769C151.47 14.1589 151.824 14.2363 152.139 14.401C152.454 14.5656 152.719 14.8117 152.908 15.1135C153.096 15.4153 153.199 15.762 153.208 16.1175Z" fill="white"/>
<path d="M41.4712 159.023C41.2147 159.178 40.9237 159.267 40.6242 159.282C40.198 159.336 39.7655 159.26 39.3837 159.063C39.0855 158.858 38.84 158.586 38.6668 158.268C38.4937 157.95 38.3979 157.596 38.3872 157.235V93.0483L40.415 94.2192V158.405C40.415 158.904 40.6591 159.178 41.0128 159.178C41.1757 159.163 41.3327 159.11 41.4712 159.023Z" fill="#F0F0F0"/>
<path opacity="0.1" d="M40.7088 80.3783C40.5152 80.6994 40.4071 81.0648 40.395 81.4396V94.219L38.3672 93.0482V80.2687C38.3672 80.2239 38.3672 80.184 38.3672 80.1392C38.3765 80.0503 38.3914 79.9621 38.412 79.8751C38.4677 79.6404 38.5584 79.4153 38.6811 79.2075L40.7088 80.3783Z" fill="black"/>
<path d="M153.218 16.2919V22.0564L73.8507 67.893C73.2578 68.2367 72.7745 67.9577 72.7745 67.2702V65.088C72.7745 64.4004 72.2763 64.1214 71.6934 64.4652L45.5217 79.5763C45.207 79.7806 44.9451 80.0563 44.7572 80.381C44.5694 80.7056 44.4608 81.0701 44.4405 81.4447V83.6269C44.4199 84.0008 44.3119 84.3647 44.1249 84.6892C43.938 85.0137 43.6775 85.2898 43.3643 85.4952L40.375 87.2091V81.4397C40.3956 81.0657 40.5037 80.7019 40.6906 80.3773C40.8775 80.0528 41.138 79.7767 41.4512 79.5713L152.142 15.6692C152.734 15.3254 153.218 15.6044 153.218 16.2919Z" fill="#065C61"/>
<path d="M153.218 93.2524C153.198 93.6273 153.091 93.9923 152.904 94.3178C152.717 94.6433 152.456 94.9202 152.142 95.1258L41.4712 159.023C40.8783 159.367 40.395 159.088 40.395 158.4V87.204L43.3844 85.4901C43.9772 85.1463 44.9438 79.915 45.5417 79.5712L71.2749 64.7092C71.8728 64.3654 73.2678 68.2316 73.8707 67.8879L153.238 22.0513V93.2474L153.218 93.2524Z" fill="#FAFAFA"/>
<path d="M152.719 22.9181V93.2523C152.7 93.5395 152.616 93.8185 152.473 94.068C152.329 94.3176 152.131 94.5311 151.892 94.6922L41.222 158.594C41.1533 158.639 41.0746 158.667 40.9928 158.674C40.8932 158.674 40.8932 158.415 40.8932 158.4V87.4879L43.6135 85.9185C44.0469 85.6694 44.316 84.8323 44.9188 82.675C45.1353 81.7518 45.4338 80.8498 45.8106 79.9796L71.3147 65.2372C71.6135 65.6507 71.8848 66.0835 72.1268 66.5326C72.8193 67.7532 73.208 68.391 73.7709 68.391C73.8867 68.3915 74.0003 68.3605 74.0998 68.3013L152.719 22.9031M153.218 22.0562L73.8507 67.8927C73.8246 67.9002 73.797 67.9002 73.7709 67.8927C73.1681 67.8927 71.9425 64.6742 71.3346 64.6742C71.3085 64.6675 71.2811 64.6675 71.2549 64.6742L45.5217 79.5362C44.9238 79.88 43.9572 85.1114 43.3643 85.4551L40.375 87.169V158.405C40.375 158.903 40.6191 159.177 40.9729 159.177C41.1495 159.174 41.3218 159.122 41.4711 159.028L152.142 95.1306C152.456 94.925 152.717 94.6482 152.904 94.3227C153.091 93.9972 153.198 93.6322 153.218 93.2573V22.0562Z" fill="#E0E0E0"/>
<path d="M59.3268 118.333L74.0742 109.818C74.4728 109.589 74.7917 109.773 74.7917 110.232V135.068C74.7788 135.318 74.707 135.561 74.5823 135.777C74.4577 135.993 74.2836 136.177 74.0742 136.314L59.3268 144.828C58.9282 145.058 58.6094 144.868 58.6094 144.41V119.578C58.6223 119.329 58.694 119.086 58.8187 118.87C58.9434 118.653 59.1175 118.469 59.3268 118.333Z" fill="#F0F0F0"/>
<path d="M62.0226 119.888L71.3793 114.487C71.7729 114.258 72.0967 114.422 72.0967 114.851C72.0789 115.092 72.0047 115.326 71.8801 115.534C71.7555 115.741 71.584 115.917 71.3793 116.046L62.0226 121.447C61.629 121.676 61.3052 121.512 61.3052 121.083C61.3234 120.842 61.3977 120.608 61.5223 120.4C61.6468 120.193 61.8182 120.017 62.0226 119.888Z" fill="#E0E0E0"/>
<path d="M61.3052 123.918V124.481C61.3052 124.755 61.4995 124.865 61.7386 124.73L62.2369 124.446C62.3635 124.366 62.4689 124.255 62.5443 124.125C62.6198 123.995 62.6629 123.849 62.6703 123.699V123.141C62.6703 122.862 62.476 122.753 62.2369 122.892L61.7386 123.171C61.6128 123.253 61.508 123.363 61.4327 123.493C61.3574 123.623 61.3137 123.769 61.3052 123.918Z" fill="#065C61"/>
<path d="M63.9907 122.643C63.9907 123.071 64.3146 123.235 64.7131 123.006L71.3694 119.16C71.5737 119.031 71.7451 118.857 71.8697 118.65C71.9943 118.443 72.0687 118.21 72.0869 117.969C72.0869 117.536 71.763 117.376 71.3694 117.605L64.7131 121.447C64.507 121.575 64.334 121.75 64.2085 121.958C64.0829 122.166 64.0083 122.4 63.9907 122.643Z" fill="#E0E0E0"/>
<path d="M61.3052 127.017V127.58C61.3052 127.854 61.4995 127.964 61.7386 127.829L62.2369 127.545C62.3629 127.464 62.4679 127.353 62.5433 127.223C62.6186 127.094 62.6621 126.948 62.6703 126.798V126.24C62.6703 125.961 62.476 125.851 62.2369 125.991L61.7386 126.27C61.6128 126.351 61.508 126.462 61.4327 126.592C61.3574 126.721 61.3137 126.867 61.3052 127.017Z" fill="#065C61"/>
<path d="M63.9907 125.762C63.9907 126.19 64.3146 126.355 64.7131 126.125L71.3694 122.279C71.5737 122.15 71.7451 121.976 71.8697 121.769C71.9943 121.562 72.0687 121.329 72.0869 121.088C72.0869 120.655 71.763 120.495 71.3694 120.725L64.7131 124.566C64.507 124.694 64.334 124.869 64.2085 125.077C64.0829 125.285 64.0083 125.52 63.9907 125.762Z" fill="#E0E0E0"/>
<path d="M61.3052 130.151V130.709C61.3052 130.988 61.4995 131.098 61.7386 130.958L62.2369 130.679C62.3627 130.597 62.4675 130.487 62.5428 130.357C62.6181 130.228 62.6618 130.082 62.6703 129.932V129.369C62.6703 129.095 62.476 128.985 62.2369 129.12L61.7386 129.404C61.6125 129.485 61.5075 129.596 61.4322 129.726C61.3569 129.855 61.3133 130.001 61.3052 130.151Z" fill="#065C61"/>
<path d="M63.9907 128.87C63.9907 129.304 64.3146 129.463 64.7131 129.234L71.3694 125.393C71.5737 125.264 71.7451 125.09 71.8697 124.883C71.9943 124.676 72.0687 124.443 72.0869 124.202C72.0869 123.769 71.763 123.609 71.3694 123.838L64.7131 127.68C64.5076 127.807 64.3351 127.982 64.2096 128.189C64.0841 128.396 64.0091 128.629 63.9907 128.87Z" fill="#E0E0E0"/>
<path d="M61.3052 133.26V133.823C61.3052 134.097 61.4995 134.212 61.7386 134.072L62.2369 133.793C62.3627 133.711 62.4675 133.601 62.5428 133.471C62.6181 133.341 62.6618 133.196 62.6703 133.046V132.498C62.6703 132.224 62.476 132.109 62.2369 132.249L61.7386 132.528C61.6148 132.608 61.5112 132.716 61.436 132.843C61.3608 132.97 61.316 133.113 61.3052 133.26Z" fill="#065C61"/>
<path d="M63.9907 131.999C63.9907 132.428 64.3146 132.592 64.7131 132.363L71.3794 128.512C71.5838 128.382 71.7551 128.206 71.8797 127.999C72.0043 127.791 72.0786 127.557 72.0968 127.316C72.0968 126.887 71.773 126.723 71.3794 126.952L64.7231 130.793C64.5143 130.922 64.3391 131.099 64.2117 131.308C64.0844 131.518 64.0087 131.755 63.9907 131.999Z" fill="#E0E0E0"/>
<path d="M61.968 137.056L71.3196 131.655C71.7182 131.426 72.0421 131.586 72.0421 132.019C72.0237 132.26 71.9487 132.494 71.8232 132.701C71.6977 132.908 71.5252 133.082 71.3196 133.21L61.968 138.61C61.5694 138.84 61.2456 138.68 61.2505 138.247C61.268 138.006 61.342 137.772 61.4667 137.566C61.5914 137.359 61.7631 137.184 61.968 137.056Z" fill="#E0E0E0"/>
<path d="M61.2456 141.082V141.645C61.2456 141.919 61.4399 142.034 61.6791 141.894L62.1773 141.615C62.3024 141.533 62.4065 141.423 62.4809 141.293C62.5554 141.163 62.5981 141.017 62.6058 140.868V140.305C62.6058 140.031 62.4114 139.916 62.1773 140.056L61.6791 140.335C61.5532 140.416 61.4485 140.527 61.3732 140.657C61.2979 140.786 61.2542 140.932 61.2456 141.082Z" fill="#065C61"/>
<path d="M63.9463 139.807C63.9463 140.235 64.2701 140.399 64.6637 140.17L71.32 136.329C71.5256 136.2 71.6981 136.025 71.8236 135.817C71.9491 135.609 72.024 135.375 72.0424 135.133C72.0424 134.705 71.7186 134.54 71.32 134.77L64.6637 138.611C64.4593 138.741 64.288 138.916 64.1634 139.124C64.0388 139.331 63.9645 139.565 63.9463 139.807Z" fill="#E0E0E0"/>
<path d="M148.161 19.899C148.913 19.4656 149.521 19.8193 149.521 20.6862C149.496 21.1578 149.36 21.6167 149.123 22.0255C148.887 22.4342 148.557 22.7812 148.161 23.0379C147.413 23.4663 146.806 23.1176 146.806 22.2507C146.83 21.7796 146.965 21.3209 147.201 20.9122C147.437 20.5035 147.765 20.1563 148.161 19.899Z" fill="white"/>
<path d="M143.274 22.7238C144.026 22.2903 144.634 22.6391 144.634 23.506C144.612 23.981 144.477 24.4439 144.241 24.8564C144.004 25.2688 143.673 25.6189 143.274 25.8776C142.526 26.311 141.918 25.9573 141.918 25.0953C141.94 24.6208 142.074 24.1582 142.309 23.7457C142.545 23.3333 142.876 22.983 143.274 22.7238Z" fill="white"/>
<path d="M139.348 27.6656C139.878 26.7481 139.878 25.7568 139.349 25.4514C138.82 25.1459 137.962 25.6421 137.432 26.5595C136.903 27.477 136.902 28.4683 137.431 28.7737C137.96 29.0792 138.818 28.583 139.348 27.6656Z" fill="white"/>
<path d="M153.218 22.0562V29.0711L40.395 94.2189V87.2039L42.6121 85.9185C43.205 85.5747 43.4043 85.0516 43.6883 84.0501L44.4406 81.4394C44.6797 80.5327 44.9388 79.9149 45.5217 79.5711L71.255 64.7091C71.8529 64.3653 72.3212 64.3304 72.7497 65.0828L73.6714 66.7568C74.0102 67.3397 74.1696 67.6835 74.7725 67.3397L153.218 22.0562Z" fill="#E6E6E6"/>
<path d="M40.395 87.2039V94.2189L38.3672 93.0481V86.0381L40.395 87.2039Z" fill="#E0E0E0"/>
<path opacity="0.5" d="M45.3427 87.7073L43.6488 88.7037L44.2964 87.4631C44.3217 87.4165 44.335 87.3642 44.335 87.3112C44.335 87.2581 44.3217 87.2059 44.2964 87.1592C44.2466 87.0994 44.1569 87.1592 44.1021 87.2539L43.1854 89.0176C43.1854 89.0176 43.1854 89.0574 43.1605 89.0824C43.1557 89.1121 43.1557 89.1423 43.1605 89.172C43.1548 89.1983 43.1548 89.2255 43.1605 89.2518C43.1677 89.2657 43.176 89.279 43.1854 89.2916L44.1021 89.9941C44.1151 90.0038 44.1308 90.0091 44.147 90.0091C44.1631 90.0091 44.1789 90.0038 44.1918 89.9941C44.24 89.9636 44.2768 89.9181 44.2964 89.8646C44.3234 89.8212 44.3376 89.7711 44.3376 89.7201C44.3376 89.669 44.3234 89.619 44.2964 89.5756L43.6488 89.0774L45.3427 88.0809C45.3871 88.0472 45.4229 88.0034 45.4471 87.9532C45.4714 87.903 45.4834 87.8477 45.4822 87.792C45.4822 87.7222 45.4174 87.6574 45.3427 87.7073Z" fill="#455A64"/>
<path opacity="0.5" d="M46.7576 86.8901L48.4515 85.8936L47.8038 85.3954C47.749 85.3555 47.7441 85.226 47.8038 85.1064C47.8636 84.9869 47.9384 84.937 47.9932 84.9769L48.9149 85.6844C48.9181 85.6958 48.9181 85.7078 48.9149 85.7192C48.9179 85.7441 48.9179 85.7692 48.9149 85.794C48.9173 85.8255 48.9173 85.8571 48.9149 85.8886C48.9169 85.9102 48.9169 85.9319 48.9149 85.9534L47.9932 87.7221C47.9742 87.765 47.943 87.8014 47.9035 87.8267C47.897 87.8334 47.8892 87.8386 47.8807 87.8422C47.8721 87.8458 47.8629 87.8477 47.8537 87.8477C47.8444 87.8477 47.8352 87.8458 47.8266 87.8422C47.8181 87.8386 47.8103 87.8334 47.8038 87.8267C47.7781 87.7802 47.7646 87.7279 47.7646 87.6748C47.7646 87.6216 47.7781 87.5693 47.8038 87.5228L48.4515 86.2822L46.7576 87.2787C46.6828 87.3235 46.623 87.2787 46.623 87.1491C46.6264 87.099 46.64 87.0501 46.6632 87.0055C46.6863 86.9609 46.7185 86.9216 46.7576 86.8901Z" fill="#455A64"/>
<path opacity="0.5" d="M52.3126 82.0125C52.3126 81.9129 52.2129 81.9278 52.1681 82.0374L51.9389 82.6054C51.5403 82.5606 51.062 82.9492 50.7382 83.6318C50.3197 84.5186 50.3197 85.5698 50.7382 85.9734C50.8401 86.0686 50.972 86.1252 51.1112 86.1334C51.2504 86.1416 51.3881 86.1008 51.5005 86.0182C51.8376 85.7916 52.1009 85.4712 52.2578 85.0965C52.285 85.0514 52.2994 84.9998 52.2994 84.9471C52.2994 84.8944 52.285 84.8427 52.2578 84.7976C52.208 84.7478 52.1183 84.7976 52.0685 84.9122C51.7546 85.5748 51.2464 85.8688 50.9325 85.5649C50.6186 85.2609 50.6186 84.4787 50.9325 83.8161C51.1517 83.3478 51.4756 83.0688 51.7546 83.0488L51.5802 83.4773C51.5354 83.5869 51.5802 83.6915 51.645 83.6467L52.3375 83.1933C52.365 83.1707 52.3864 83.1415 52.3994 83.1083C52.4125 83.0752 52.4169 83.0393 52.4122 83.004L52.3126 82.0125Z" fill="#455A64"/>
<path opacity="0.5" d="M70.5125 67.9128L71.1303 66.6075C71.1677 66.5459 71.1875 66.4753 71.1875 66.4032C71.1875 66.3312 71.1677 66.2605 71.1303 66.199C71.0556 66.1292 70.941 66.199 70.8663 66.3534L70.2485 67.6588L69.6307 67.0659C69.5609 66.9961 69.4413 67.0659 69.3666 67.2153C69.3317 67.2778 69.3134 67.3481 69.3134 67.4196C69.3134 67.4911 69.3317 67.5615 69.3666 67.6239L69.9694 68.2267L69.3516 69.5371C69.3167 69.5986 69.2983 69.6681 69.2983 69.7388C69.2983 69.8096 69.3167 69.8791 69.3516 69.9406C69.3709 69.9556 69.3946 69.9637 69.4189 69.9637C69.4433 69.9637 69.4669 69.9556 69.4862 69.9406C69.5427 69.8999 69.5874 69.8449 69.6157 69.7812L70.2335 68.4709L70.8513 69.0687C70.8701 69.0845 70.894 69.0932 70.9186 69.0932C70.9432 69.0932 70.967 69.0845 70.9858 69.0687C71.0434 69.0291 71.0884 68.9738 71.1154 68.9093C71.1528 68.8477 71.1725 68.7771 71.1725 68.705C71.1725 68.633 71.1528 68.5623 71.1154 68.5008L70.5125 67.9128Z" fill="#455A64"/>
<path d="M54.5591 83.6217V81.4395C54.5794 81.065 54.6879 80.7005 54.8758 80.3758C55.0637 80.0512 55.3256 79.7755 55.6402 79.5712L146.073 27.3723C146.666 27.0285 147.149 27.3075 147.149 27.9951V30.1773C147.128 30.5512 147.02 30.9151 146.833 31.2396C146.646 31.5641 146.386 31.8402 146.073 32.0456L55.6402 84.2445C55.0224 84.5883 54.5591 84.3093 54.5591 83.6217Z" fill="#FAFAFA"/>
<path d="M144.603 32.2199C144.572 32.2256 144.54 32.2256 144.509 32.2199C144.449 32.1921 144.4 32.1451 144.37 32.0864C144.341 32.0277 144.331 31.9607 144.344 31.8961L144.449 31.0092L144.035 30.7103C143.998 30.682 143.968 30.6449 143.948 30.6024C143.928 30.5599 143.919 30.5131 143.921 30.4662C143.922 30.3946 143.939 30.3243 143.97 30.2598C144.001 30.1953 144.045 30.1382 144.1 30.0925L144.733 29.5943C144.745 29.5801 144.754 29.5629 144.758 29.5444L145.042 28.6128C145.06 28.5373 145.1 28.4688 145.157 28.4157C145.213 28.3626 145.284 28.3272 145.361 28.3138C145.413 28.3096 145.465 28.3217 145.509 28.3485C145.554 28.3753 145.589 28.4155 145.61 28.4633L145.849 28.9615L146.382 28.7572C146.431 28.7372 146.485 28.7327 146.537 28.7443C146.588 28.7559 146.635 28.783 146.671 28.822C146.713 28.8873 146.736 28.9634 146.736 29.0412C146.736 29.119 146.713 29.1951 146.671 29.2605L146.213 30.1174C146.213 30.1174 146.213 30.1672 146.213 30.1722L146.317 30.9494C146.329 31.0221 146.324 31.0965 146.303 31.1671C146.283 31.2378 146.246 31.3029 146.198 31.358C146.166 31.3925 146.128 31.4195 146.085 31.4368C146.041 31.4541 145.995 31.4612 145.948 31.4576L145.45 31.3929L144.892 32.1053C144.858 32.1475 144.813 32.1801 144.763 32.2002C144.712 32.2203 144.657 32.227 144.603 32.2199ZM144.299 30.4163L144.713 30.7153C144.756 30.7511 144.788 30.7976 144.808 30.8501C144.827 30.9025 144.832 30.9591 144.823 31.0142L144.753 31.6021L145.126 31.1288C145.158 31.0832 145.201 31.0464 145.25 31.022C145.3 30.9976 145.355 30.9863 145.41 30.9893L145.909 31.0541C145.912 31.0343 145.912 31.014 145.909 30.9943L145.799 30.217C145.79 30.1207 145.809 30.0237 145.854 29.938L146.257 29.1857L145.844 29.3452C145.782 29.3701 145.713 29.3701 145.652 29.3449C145.591 29.3198 145.541 29.2716 145.515 29.2106L145.331 28.817L145.077 29.6441C145.049 29.7353 144.995 29.8166 144.922 29.8783L144.284 30.3765C144.287 30.3906 144.292 30.4041 144.299 30.4163Z" fill="#E0E0E0"/>
<g opacity="0.5">
<path d="M148.42 27.1131C148.338 27.1127 148.258 27.0852 148.193 27.0349C148.128 26.9846 148.082 26.9143 148.061 26.8349C148.04 26.7555 148.046 26.6714 148.077 26.5956C148.109 26.5198 148.164 26.4566 148.236 26.4156L151.27 24.6618C151.356 24.6123 151.458 24.5989 151.553 24.6246C151.649 24.6503 151.731 24.713 151.78 24.7989C151.83 24.8847 151.843 24.9868 151.818 25.0826C151.792 25.1783 151.729 25.26 151.643 25.3095L148.609 27.0633C148.552 27.0964 148.486 27.1136 148.42 27.1131Z" fill="#455A64"/>
<path d="M148.42 28.867C148.338 28.8666 148.258 28.8391 148.193 28.7888C148.128 28.7385 148.082 28.6682 148.061 28.5888C148.04 28.5094 148.046 28.4253 148.077 28.3495C148.109 28.2737 148.164 28.2105 148.236 28.1695L151.27 26.4158C151.356 26.3662 151.458 26.3528 151.553 26.3785C151.649 26.4042 151.731 26.4669 151.78 26.5528C151.83 26.6387 151.843 26.7407 151.818 26.8365C151.792 26.9323 151.729 27.0139 151.643 27.0634L148.609 28.8172C148.551 28.8482 148.486 28.8652 148.42 28.867Z" fill="#455A64"/>
<path d="M148.42 30.6205C148.338 30.6201 148.258 30.5926 148.193 30.5423C148.128 30.492 148.082 30.4217 148.061 30.3423C148.04 30.2629 148.046 30.1788 148.077 30.103C148.109 30.0272 148.164 29.964 148.236 29.923L151.27 28.1693C151.354 28.122 151.453 28.1097 151.546 28.1348C151.639 28.16 151.719 28.2206 151.768 28.3038C151.814 28.3882 151.826 28.4871 151.801 28.5798C151.776 28.6726 151.716 28.7522 151.633 28.802L148.599 30.5508C148.547 30.5891 148.485 30.6131 148.42 30.6205Z" fill="#455A64"/>
</g>
<path d="M40.3951 94.219L40.3901 101.224L153.208 36.0913L153.218 29.0713L40.3951 94.219Z" fill="#455A64"/>
<path d="M53.0298 89.7498V91.105C53.0298 91.384 53.2241 91.4936 53.4632 91.3541L70.4028 81.564V79.1875L53.4632 88.9776C53.3347 89.0625 53.2283 89.1768 53.1529 89.3112C53.0775 89.4455 53.0353 89.5959 53.0298 89.7498Z" fill="#FAFAFA"/>
<path d="M72.7098 77.8773C72.9539 77.7378 73.1482 77.8524 73.1482 78.1314V79.4866C73.1403 79.6378 73.0964 79.785 73.0201 79.9158C72.9439 80.0467 72.8375 80.1574 72.7098 80.2389L70.418 81.5642V79.1876L72.7098 77.8773Z" fill="#065C61"/>
<path d="M72.5407 79.7359L72.2866 79.6561C72.312 79.5484 72.3254 79.4381 72.3264 79.3273C72.3378 79.2243 72.3222 79.12 72.2812 79.0248C72.2401 78.9296 72.175 78.8467 72.0923 78.7843C72.0367 78.7504 71.973 78.7324 71.9079 78.7324C71.8429 78.7324 71.7791 78.7504 71.7236 78.7843C71.5632 78.9098 71.4346 79.0712 71.3481 79.2555C71.2615 79.4399 71.2195 79.6419 71.2253 79.8455C71.213 79.9493 71.2282 80.0546 71.2693 80.1508C71.3104 80.2469 71.376 80.3306 71.4595 80.3935C71.5091 80.4233 71.566 80.4389 71.6239 80.4384C71.6984 80.437 71.771 80.4145 71.8332 80.3736C72.0265 80.2381 72.1714 80.0443 72.2467 79.8206L72.5008 79.9003H72.5307C72.5505 79.9002 72.5699 79.894 72.586 79.8824C72.6021 79.8707 72.6141 79.8543 72.6204 79.8355C72.6208 79.8122 72.6131 79.7895 72.5986 79.7713C72.584 79.753 72.5635 79.7405 72.5407 79.7359ZM71.7236 80.2341C71.6961 80.2519 71.6641 80.2614 71.6314 80.2614C71.5987 80.2614 71.5667 80.2519 71.5392 80.2341C71.4873 80.1857 71.4475 80.1258 71.4233 80.0591C71.399 79.9924 71.391 79.9209 71.3997 79.8505C71.3969 79.679 71.4332 79.5092 71.5057 79.3538C71.5782 79.1985 71.6851 79.0616 71.8182 78.9536C71.8523 78.9314 71.8921 78.9193 71.9328 78.9188C71.9541 78.9137 71.9763 78.9137 71.9976 78.9188C72.0502 78.9666 72.0904 79.0265 72.1147 79.0934C72.139 79.1602 72.1467 79.2319 72.1371 79.3024C72.1439 79.4775 72.1102 79.6519 72.0384 79.8118C71.9667 79.9717 71.8589 80.1128 71.7236 80.2241V80.2341Z" fill="#FAFAFA"/>
<path d="M50.0757 90.9606L48.9198 91.6431C48.794 91.725 48.6892 91.8353 48.6139 91.9651C48.5386 92.0949 48.4949 92.2406 48.4863 92.3905V93.7307C48.4863 94.0097 48.6806 94.1193 48.9198 93.9798L50.0757 93.3122C50.2018 93.2307 50.3068 93.1204 50.3821 92.9905C50.4574 92.8607 50.501 92.7148 50.5091 92.5649V91.2246C50.5091 90.9357 50.3148 90.8211 50.0757 90.9606Z" fill="#FAFAFA"/>
<path d="M90.2476 67.1955C89.7978 67.4897 89.4236 67.8856 89.1553 68.3513C88.8869 68.8169 88.732 69.3393 88.7031 69.8759C88.7031 70.8724 89.3957 71.261 90.2476 70.7678C90.6974 70.4736 91.0716 70.0777 91.34 69.612C91.6083 69.1463 91.7632 68.624 91.7921 68.0873C91.7921 67.1058 91.0996 66.7023 90.2476 67.1955Z" fill="#065C61"/>
<path d="M90.0674 68.7697C90.0186 68.7707 89.9705 68.7586 89.9279 68.7348C89.8777 68.7013 89.8374 68.655 89.8112 68.6007C89.7849 68.5464 89.7736 68.486 89.7784 68.4259C89.7856 68.284 89.8264 68.1459 89.8975 68.0229C89.9685 67.8999 90.0677 67.7956 90.187 67.7184C90.2392 67.6882 90.2985 67.6724 90.3589 67.6724C90.4192 67.6724 90.4785 67.6882 90.5308 67.7184C90.5809 67.7519 90.6212 67.7982 90.6475 67.8525C90.6738 67.9068 90.6851 67.9672 90.6802 68.0273C90.673 68.1692 90.6322 68.3073 90.5612 68.4303C90.4902 68.5533 90.3909 68.6577 90.2717 68.7348C90.2077 68.7636 90.1374 68.7756 90.0674 68.7697Z" fill="white"/>
<path d="M90.8598 68.8741C90.7733 68.8309 90.6767 68.8118 90.5803 68.8188C90.4839 68.8258 90.3911 68.8587 90.3117 68.914L90.0876 69.0435C89.8831 69.1733 89.7132 69.3509 89.5925 69.5609C89.4719 69.771 89.4041 70.0072 89.395 70.2492V70.4086C89.5327 70.4683 89.6835 70.4914 89.8328 70.4756C89.982 70.4599 90.1247 70.406 90.247 70.319C90.6018 70.0964 90.8949 69.788 91.0989 69.4221V69.3823C91.1081 69.284 91.0907 69.185 91.0487 69.0956C91.0066 69.0062 90.9414 68.9297 90.8598 68.8741Z" fill="white"/>
<path d="M93.7846 65.9996L104.372 59.8815C104.8 59.6373 105.149 59.8217 105.149 60.3049C105.133 60.57 105.054 60.8275 104.919 61.0561C104.784 61.2848 104.596 61.4781 104.372 61.6203L93.7846 67.7285C93.3561 67.9776 93.0073 67.7883 93.0073 67.31C93.0248 67.0458 93.1042 66.7895 93.2393 66.5619C93.3743 66.3342 93.5611 66.1416 93.7846 65.9996Z" fill="#E0E0E0"/>
<path d="M109.947 56.6779L116.518 52.8516C116.947 52.6024 117.29 52.7918 117.295 53.2701C117.278 53.5349 117.199 53.7919 117.064 54.0203C116.929 54.2488 116.742 54.4423 116.518 54.5854L109.947 58.4167C109.518 58.6608 109.169 58.4765 109.169 57.9932C109.187 57.7284 109.266 57.4714 109.401 57.243C109.536 57.0145 109.723 56.821 109.947 56.6779Z" fill="#E0E0E0"/>
<path d="M122.104 49.6926L126.638 47.062C127.066 46.8129 127.415 47.0022 127.415 47.4805C127.398 47.7455 127.319 48.0028 127.184 48.2314C127.049 48.46 126.862 48.6534 126.638 48.7958L122.104 51.4314C121.675 51.6756 121.327 51.4912 121.327 51.0129C121.343 50.7473 121.422 50.4893 121.557 50.2599C121.693 50.0305 121.88 49.8362 122.104 49.6926Z" fill="#E0E0E0"/>
<path d="M107.178 60.5192C107.127 60.5192 107.079 60.4992 107.044 60.4637C107.008 60.4282 106.988 60.3801 106.988 60.3299V57.9932C106.996 57.9489 107.018 57.9086 107.053 57.8795C107.087 57.8504 107.13 57.8345 107.175 57.8345C107.22 57.8345 107.263 57.8504 107.298 57.8795C107.332 57.9086 107.355 57.9489 107.362 57.9932V60.3299C107.362 60.3792 107.343 60.4266 107.308 60.462C107.274 60.4974 107.227 60.5179 107.178 60.5192Z" fill="#263238"/>
<path d="M119.318 53.5089C119.268 53.5089 119.22 53.489 119.184 53.4535C119.149 53.418 119.129 53.3698 119.129 53.3196V50.9829C119.136 50.9386 119.159 50.8983 119.193 50.8693C119.227 50.8402 119.271 50.8242 119.316 50.8242C119.361 50.8242 119.404 50.8402 119.438 50.8693C119.473 50.8983 119.495 50.9386 119.503 50.9829V53.3196C119.503 53.369 119.483 53.4164 119.449 53.4517C119.414 53.4871 119.368 53.5076 119.318 53.5089Z" fill="#263238"/>
<path d="M129.437 47.6648C129.388 47.6648 129.341 47.6455 129.305 47.6111C129.27 47.5767 129.249 47.5298 129.248 47.4804V45.1438C129.244 45.1167 129.245 45.0889 129.253 45.0625C129.26 45.036 129.273 45.0115 129.291 44.9906C129.308 44.9697 129.331 44.9529 129.355 44.9413C129.38 44.9298 129.407 44.9238 129.435 44.9238C129.462 44.9238 129.49 44.9298 129.514 44.9413C129.539 44.9529 129.561 44.9697 129.579 44.9906C129.597 45.0115 129.61 45.036 129.617 45.0625C129.625 45.0889 129.626 45.1167 129.622 45.1438V47.4804C129.621 47.5289 129.601 47.5751 129.566 47.6094C129.532 47.6437 129.486 47.6635 129.437 47.6648Z" fill="#263238"/>
<path d="M133.329 44.0629V43.6344C133.329 43.1362 133.03 42.9169 132.661 43.1362C132.46 43.2818 132.295 43.4725 132.18 43.693C132.065 43.9136 132.003 44.1579 131.999 44.4066V44.8102C131.991 45.0762 131.913 45.3355 131.775 45.5625C131.74 45.6214 131.721 45.6884 131.72 45.7568C131.72 45.8814 131.794 45.9362 131.884 45.8864L133.444 44.9895C133.494 44.9516 133.535 44.9028 133.563 44.8466C133.592 44.7905 133.607 44.7286 133.608 44.6657C133.61 44.6418 133.606 44.6178 133.597 44.5954C133.589 44.573 133.575 44.5528 133.558 44.5362C133.476 44.4903 133.41 44.4203 133.369 44.3356C133.328 44.251 133.314 44.1557 133.329 44.0629Z" fill="#065C61"/>
<path d="M132.985 45.3584C132.982 45.4787 132.951 45.5968 132.895 45.7032C132.839 45.8096 132.759 45.9014 132.661 45.9712C132.486 46.0709 132.342 45.9712 132.342 45.7271L132.985 45.3584Z" fill="#065C61"/>
<path d="M136.174 42.1796C136.12 42.1794 136.067 42.1657 136.02 42.1398C135.963 42.1019 135.917 42.0497 135.888 41.9884C135.858 41.9271 135.845 41.859 135.85 41.791C135.857 41.6311 135.902 41.4752 135.982 41.3364C136.062 41.1976 136.174 41.0801 136.309 40.9939C136.365 40.9556 136.431 40.9327 136.499 40.9274C136.567 40.9222 136.635 40.9348 136.697 40.964C136.754 41.0018 136.799 41.0541 136.829 41.1154C136.859 41.1767 136.872 41.2448 136.867 41.3127C136.86 41.4726 136.815 41.6286 136.735 41.7673C136.655 41.9061 136.543 42.0236 136.408 42.1099C136.337 42.1522 136.257 42.1762 136.174 42.1796Z" fill="#065C61"/>
<path d="M137.066 42.3189C136.968 42.2714 136.86 42.251 136.752 42.2598C136.645 42.2686 136.541 42.3062 136.453 42.3687L136.199 42.5132C135.969 42.6612 135.779 42.8619 135.643 43.0985C135.507 43.3351 135.429 43.6007 135.417 43.8733V44.0527C135.572 44.1191 135.742 44.1447 135.91 44.1273C136.078 44.1099 136.239 44.0499 136.378 43.9531C136.776 43.705 137.106 43.3628 137.34 42.9566V42.9118C137.352 42.7974 137.333 42.6819 137.284 42.5776C137.236 42.4732 137.161 42.3838 137.066 42.3189Z" fill="#065C61"/>
<path d="M137.408 41.0239C137.354 41.0262 137.3 41.0123 137.254 40.984C137.197 40.9469 137.15 40.8948 137.121 40.8333C137.091 40.7718 137.078 40.7033 137.085 40.6352C137.091 40.4753 137.137 40.3194 137.216 40.1806C137.296 40.0419 137.408 39.9244 137.543 39.8381C137.597 39.795 137.663 39.7694 137.732 39.7645C137.802 39.7597 137.871 39.7758 137.93 39.8108C137.99 39.8458 138.038 39.8981 138.067 39.9607C138.097 40.0234 138.107 40.0935 138.096 40.1619C138.088 40.321 138.043 40.4759 137.963 40.6138C137.883 40.7516 137.772 40.8683 137.638 40.9541C137.569 40.9984 137.49 41.0226 137.408 41.0239Z" fill="#065C61"/>
<path d="M138.301 41.1434C138.204 41.0948 138.095 41.0733 137.986 41.0812C137.877 41.0891 137.773 41.126 137.683 41.1882L137.434 41.3377C137.145 41.516 136.921 41.7811 136.792 42.095C136.875 42.0496 136.968 42.0259 137.063 42.0259C137.158 42.0259 137.251 42.0496 137.335 42.095C137.427 42.1583 137.502 42.2452 137.55 42.3468C137.598 42.4483 137.618 42.5609 137.609 42.6729V42.7825C138.01 42.538 138.343 42.195 138.575 41.7861V41.7412C138.589 41.626 138.57 41.5093 138.522 41.4039C138.474 41.2985 138.397 41.2083 138.301 41.1434Z" fill="#065C61"/>
<path d="M141.38 37.9546C141.01 38.1957 140.702 38.5208 140.481 38.9035C140.26 39.2862 140.133 39.7156 140.11 40.1568C140.1 40.2952 140.12 40.4342 140.169 40.564C140.218 40.6939 140.295 40.8116 140.394 40.9091L140.234 41.6614C140.234 41.7561 140.279 41.7959 140.339 41.7262L140.912 41.0586C141.077 41.0337 141.236 40.9779 141.38 40.8941C141.749 40.6522 142.056 40.3268 142.276 39.9442C142.496 39.5616 142.623 39.1326 142.646 38.692C142.646 37.8799 142.078 37.5511 141.38 37.9546Z" fill="#065C61"/>
<path d="M147.473 34.4074C147.567 34.3463 147.675 34.3087 147.787 34.2978C147.874 34.2859 147.963 34.3016 148.041 34.3426C148.117 34.3893 148.176 34.4591 148.21 34.5419C148.257 34.6502 148.28 34.7677 148.275 34.8857C148.277 34.9897 148.265 35.0935 148.24 35.1946C148.215 35.2892 148.186 35.3824 148.15 35.4736C148.111 35.5583 148.071 35.643 148.026 35.7227C147.981 35.8024 147.941 35.8772 147.901 35.9519C147.861 36.0266 147.822 36.1063 147.792 36.1811C147.759 36.2527 147.736 36.328 147.722 36.4053C147.716 36.4407 147.708 36.4756 147.697 36.5099C147.686 36.5367 147.667 36.5593 147.642 36.5747L147.284 36.7839C147.275 36.7913 147.265 36.7953 147.254 36.7953C147.243 36.7953 147.232 36.7913 147.224 36.7839C147.206 36.7632 147.197 36.7364 147.199 36.7092C147.199 36.6115 147.213 36.5144 147.239 36.4202C147.267 36.3254 147.3 36.2323 147.338 36.1412C147.378 36.0565 147.423 35.9668 147.468 35.8871C147.513 35.8074 147.558 35.7277 147.597 35.653C147.636 35.5857 147.669 35.5158 147.697 35.4437C147.723 35.3823 147.737 35.3162 147.737 35.2494C147.737 35.1597 147.737 35.1049 147.672 35.08C147.607 35.0551 147.563 35.08 147.473 35.1199C147.395 35.162 147.329 35.2217 147.279 35.2942C147.243 35.3521 147.215 35.414 147.194 35.4786C147.194 35.5384 147.159 35.5932 147.149 35.638C147.137 35.682 147.111 35.7207 147.074 35.7476L146.711 35.9569C146.703 35.9625 146.695 35.9656 146.686 35.9656C146.677 35.9656 146.668 35.9625 146.661 35.9569C146.653 35.9376 146.653 35.9164 146.661 35.8971C146.664 35.7708 146.683 35.6454 146.716 35.5234C146.757 35.3791 146.812 35.239 146.88 35.1049C146.952 34.965 147.039 34.833 147.139 34.7113C147.231 34.5903 147.344 34.4873 147.473 34.4074ZM147.732 37.3967C147.731 37.4314 147.722 37.4653 147.707 37.4964C147.695 37.5242 147.677 37.5483 147.652 37.5661L147.274 37.7804C147.266 37.7874 147.256 37.7913 147.246 37.7913C147.236 37.7913 147.226 37.7874 147.219 37.7804C147.201 37.7597 147.192 37.7328 147.194 37.7056V37.2423C147.195 37.2077 147.203 37.1737 147.219 37.1426C147.229 37.1139 147.248 37.0893 147.274 37.0729L147.652 36.8537C147.66 36.8476 147.67 36.8443 147.68 36.8443C147.69 36.8443 147.699 36.8476 147.707 36.8537C147.725 36.8744 147.734 36.9012 147.732 36.9284V37.3967Z" fill="#065C61"/>
<path d="M58.6055 94.2939V115.17C58.6055 115.857 59.1037 116.136 59.6866 115.792L133.922 72.9151C134.235 72.7097 134.496 72.4337 134.683 72.1091C134.869 71.7846 134.978 71.4207 134.998 71.0468V50.1762C134.998 49.4887 134.5 49.2097 133.922 49.5534L59.6866 92.4256C59.372 92.6299 59.1101 92.9056 58.9222 93.2302C58.7343 93.5549 58.6258 93.9194 58.6055 94.2939Z" fill="#065C61"/>
<path opacity="0.7" d="M58.6055 94.2939V115.17C58.6055 115.857 59.1037 116.136 59.6866 115.792L133.922 72.9151C134.235 72.7097 134.496 72.4337 134.683 72.1091C134.869 71.7846 134.978 71.4207 134.998 71.0468V50.1762C134.998 49.4887 134.5 49.2097 133.922 49.5534L59.6866 92.4256C59.372 92.6299 59.1101 92.9056 58.9222 93.2302C58.7343 93.5549 58.6258 93.9194 58.6055 94.2939Z" fill="white"/>
<path d="M64.678 97.3329C62.441 98.6282 60.6274 101.767 60.6274 104.348C60.6274 106.929 62.441 107.975 64.678 106.685C66.915 105.394 68.7286 102.255 68.7236 99.6695C68.7186 97.0838 66.91 96.0425 64.678 97.3329Z" fill="#065C61"/>
<path d="M64.2052 101.453C64.0793 101.455 63.9552 101.422 63.8465 101.359C63.7144 101.271 63.6084 101.149 63.54 101.006C63.4716 100.863 63.4432 100.704 63.4579 100.547C63.4747 100.177 63.5798 99.8165 63.7644 99.4958C63.9491 99.1751 64.2078 98.9033 64.5191 98.7031C64.6442 98.6013 64.7973 98.5399 64.958 98.527C65.1188 98.514 65.2797 98.5502 65.4195 98.6306C65.5593 98.711 65.6714 98.832 65.7411 98.9775C65.8107 99.1229 65.8346 99.2861 65.8095 99.4454C65.7917 99.8155 65.6857 100.176 65.5002 100.497C65.3147 100.817 65.0552 101.089 64.7433 101.289C64.5816 101.39 64.3959 101.447 64.2052 101.453Z" fill="white"/>
<path d="M66.2772 101.722C66.0519 101.61 65.8005 101.561 65.5497 101.581C65.2988 101.6 65.0579 101.687 64.8523 101.832L64.2644 102.171C63.7317 102.514 63.2884 102.979 62.9713 103.527C62.6542 104.076 62.4723 104.692 62.4409 105.324V105.743C63.0189 106.062 63.8061 106.007 64.6779 105.504C65.6081 104.925 66.376 104.119 66.91 103.162V103.063C66.9301 102.803 66.8824 102.543 66.7714 102.308C66.6605 102.073 66.4901 101.871 66.2772 101.722Z" fill="white"/>
<path d="M71.5238 96.4808L80.0982 91.5334C80.5267 91.2843 80.8755 91.4437 80.8755 91.8822C80.8521 92.136 80.7696 92.3809 80.6346 92.5972C80.4997 92.8134 80.316 92.9951 80.0982 93.1277L71.5238 98.0751C71.0953 98.3242 70.7466 98.1698 70.7466 97.7263C70.77 97.4725 70.8525 97.2276 70.9874 97.0114C71.1224 96.7951 71.3061 96.6134 71.5238 96.4808Z" fill="#455A64"/>
<path d="M71.2049 99.7991L76.247 96.8895C76.4961 96.74 76.7004 96.8347 76.7004 97.0937C76.6866 97.2426 76.6384 97.3862 76.5598 97.5132C76.4811 97.6403 76.374 97.7474 76.247 97.8261L71.2049 100.736C70.9509 100.88 70.7466 100.791 70.7466 100.531C70.7598 100.382 70.8082 100.238 70.8879 100.11C70.9675 99.983 71.0762 99.8763 71.2049 99.7991Z" fill="#455A64"/>
<path d="M59.6866 115.817L133.922 72.9699C134.235 72.7644 134.496 72.4884 134.683 72.1638C134.869 71.8393 134.978 71.4754 134.998 71.1015V67.6787L58.6055 111.767V115.194C58.6055 115.882 59.0887 116.161 59.6866 115.817Z" fill="#F5F5F5"/>
<path d="M78.8431 103.745C78.8187 103.746 78.7944 103.741 78.7718 103.732C78.7491 103.723 78.7285 103.71 78.7112 103.693C78.694 103.675 78.6804 103.655 78.6714 103.632C78.6624 103.609 78.6581 103.585 78.6588 103.561V101.224C78.6581 101.199 78.6624 101.175 78.6713 101.152C78.6803 101.129 78.6938 101.108 78.711 101.09C78.7281 101.073 78.7487 101.059 78.7714 101.049C78.7941 101.04 78.8185 101.035 78.8431 101.035C78.8933 101.035 78.9415 101.055 78.977 101.09C79.0125 101.126 79.0324 101.174 79.0324 101.224V103.561C79.0324 103.585 79.0275 103.61 79.0179 103.632C79.0084 103.655 78.9943 103.676 78.9767 103.693C78.959 103.71 78.9381 103.723 78.9152 103.732C78.8922 103.741 78.8677 103.746 78.8431 103.745Z" fill="#EBEBEB"/>
<path d="M69.7904 106.824L76.357 102.993C76.7855 102.749 77.1342 102.933 77.1342 103.416C77.1168 103.681 77.0373 103.938 76.9023 104.167C76.7673 104.395 76.5805 104.589 76.357 104.732L69.7904 108.583C69.3619 108.832 69.0132 108.643 69.0132 108.164C69.0268 107.895 69.1044 107.633 69.2396 107.4C69.3748 107.167 69.5636 106.97 69.7904 106.824Z" fill="#E0E0E0"/>
<path d="M90.7054 96.8549C90.6808 96.8549 90.6564 96.8499 90.6337 96.8404C90.611 96.8308 90.5904 96.8168 90.5733 96.7991C90.5561 96.7815 90.5426 96.7606 90.5336 96.7376C90.5247 96.7147 90.5204 96.6902 90.5211 96.6655V94.3289C90.5211 94.28 90.5405 94.2331 90.5751 94.1985C90.6096 94.164 90.6565 94.1445 90.7054 94.1445C90.7548 94.1445 90.8022 94.1638 90.8375 94.1982C90.8729 94.2326 90.8934 94.2795 90.8947 94.3289V96.6655C90.8947 96.7158 90.8748 96.7639 90.8393 96.7994C90.8038 96.8349 90.7556 96.8549 90.7054 96.8549Z" fill="#EBEBEB"/>
<path d="M81.6527 99.9289L88.2193 96.1274C88.6478 95.8783 88.9965 96.0676 88.9965 96.5459C88.9798 96.8109 88.9007 97.0682 88.7657 97.2968C88.6306 97.5254 88.4434 97.7188 88.2193 97.8613L81.6527 101.693C81.2242 101.942 80.8755 101.752 80.8755 101.274C80.8883 101.004 80.9656 100.741 81.1008 100.507C81.236 100.273 81.4252 100.075 81.6527 99.9289Z" fill="#E0E0E0"/>
<path d="M102.568 89.9594C102.519 89.9594 102.471 89.9401 102.436 89.9057C102.401 89.8712 102.38 89.8244 102.379 89.775V87.4384C102.379 87.3881 102.399 87.34 102.434 87.3045C102.47 87.269 102.518 87.249 102.568 87.249C102.593 87.249 102.617 87.2539 102.64 87.2635C102.663 87.2731 102.683 87.2871 102.7 87.3048C102.718 87.3224 102.731 87.3433 102.74 87.3663C102.749 87.3892 102.753 87.4137 102.753 87.4384V89.775C102.753 89.8239 102.733 89.8708 102.699 89.9054C102.664 89.9399 102.617 89.9594 102.568 89.9594Z" fill="#EBEBEB"/>
<path d="M93.5155 93.038L100.082 89.2067C100.511 88.9625 100.859 89.1469 100.859 89.6301C100.842 89.8949 100.762 90.1519 100.627 90.3804C100.492 90.6089 100.306 90.8024 100.082 90.9455L93.5155 94.7718C93.087 95.0209 92.7383 94.8316 92.7383 94.3533C92.7558 94.0885 92.8352 93.8315 92.9702 93.603C93.1052 93.3746 93.292 93.181 93.5155 93.038Z" fill="#E0E0E0"/>
<path d="M114.431 83.0688C114.381 83.0688 114.333 83.0489 114.297 83.0133C114.262 82.9778 114.242 82.9297 114.242 82.8795V80.5428C114.242 80.5182 114.247 80.4938 114.256 80.4711C114.266 80.4484 114.28 80.4279 114.297 80.4107C114.315 80.3935 114.336 80.38 114.359 80.371C114.382 80.3621 114.406 80.3578 114.431 80.3585C114.455 80.3578 114.48 80.3621 114.502 80.3711C114.525 80.3801 114.546 80.3937 114.563 80.4109C114.58 80.4282 114.594 80.4488 114.603 80.4715C114.612 80.4941 114.616 80.5184 114.615 80.5428V82.8795C114.616 82.9041 114.612 82.9286 114.603 82.9516C114.594 82.9745 114.58 82.9954 114.563 83.0131C114.546 83.0307 114.525 83.0447 114.503 83.0543C114.48 83.0639 114.456 83.0688 114.431 83.0688Z" fill="#EBEBEB"/>
<path d="M105.378 86.1628L111.944 82.3364C112.373 82.0873 112.722 82.2766 112.722 82.7549C112.705 83.0199 112.626 83.2772 112.491 83.5058C112.356 83.7344 112.168 83.9278 111.944 84.0702L105.378 87.9016C104.944 88.1507 104.601 87.9614 104.601 87.4831C104.616 87.2171 104.695 86.9587 104.83 86.7291C104.965 86.4995 105.153 86.3054 105.378 86.1628Z" fill="#E0E0E0"/>
<path d="M117.236 79.2523L123.808 75.421C124.236 75.1769 124.585 75.3612 124.585 75.8445C124.567 76.1093 124.488 76.3663 124.353 76.5947C124.218 76.8232 124.031 77.0168 123.808 77.1598L117.236 80.9862C116.808 81.2353 116.464 81.046 116.464 80.5677C116.48 80.3032 116.559 80.0464 116.693 79.8179C116.827 79.5894 117.013 79.3956 117.236 79.2523Z" fill="#E0E0E0"/>
<path d="M56.0218 185.752L62.6432 181.936C62.6432 181.936 66.7536 169.839 65.7123 158.699C64.4019 144.858 57.8653 139.971 54.0289 141.535C50.1926 143.099 50.9848 148.595 55.0553 155.984C58.2688 161.858 58.2788 175.369 56.0218 185.752Z" fill="#065C61"/>
<path opacity="0.1" d="M56.0218 185.752L62.6432 181.936C62.6432 181.936 66.7536 169.839 65.7123 158.699C64.4019 144.858 57.8653 139.971 54.0289 141.535C50.1926 143.099 50.9848 148.595 55.0553 155.984C58.2688 161.858 58.2788 175.369 56.0218 185.752Z" fill="black"/>
<path d="M59.1849 184.233C59.2477 184.233 59.3089 184.213 59.3599 184.177C59.4109 184.14 59.449 184.088 59.4689 184.029C63.7337 170.97 63.9131 152.641 55.8418 144.365C55.8144 144.337 55.7816 144.315 55.7455 144.299C55.7093 144.284 55.6704 144.275 55.6311 144.275C55.5918 144.274 55.5528 144.282 55.5163 144.296C55.4798 144.311 55.4465 144.333 55.4183 144.36C55.3902 144.388 55.3678 144.42 55.3523 144.457C55.3368 144.493 55.3286 144.532 55.3281 144.571C55.3277 144.61 55.335 144.649 55.3496 144.686C55.3642 144.722 55.3859 144.756 55.4134 144.784C63.0312 152.586 63.1657 170.771 58.9009 183.839C58.8885 183.877 58.8838 183.917 58.8869 183.956C58.8899 183.996 58.9008 184.034 58.9189 184.069C58.937 184.105 58.9619 184.136 58.9922 184.161C59.0224 184.187 59.0575 184.206 59.0952 184.218C59.1242 184.228 59.1544 184.233 59.1849 184.233Z" fill="white"/>
<path d="M44.1034 192.623C43.4159 193.016 42.0009 192.155 41.4628 191.791C40.5367 191.16 39.7872 190.302 39.2856 189.3C38.7255 188.157 38.534 186.869 38.7376 185.613C38.8494 184.95 39.0059 184.296 39.2059 183.655C39.3902 183.022 39.5696 182.389 39.7539 181.752C39.9743 181.139 40.0692 180.488 40.0329 179.838C39.8635 178.538 38.7127 177.626 37.6614 176.849C36.5005 175.982 35.2948 174.831 35.2998 173.267C35.3826 172.051 35.8682 170.898 36.6799 169.989C37.4272 169.042 38.3141 168.205 38.9917 167.204C39.5253 166.507 39.8033 165.649 39.7789 164.772C39.7058 164.236 39.5262 163.719 39.2507 163.253C38.6977 162.231 37.9653 161.3 37.5867 160.203C37.208 159.107 37.2578 157.747 38.1148 156.965C38.8173 156.322 39.8586 156.233 40.8102 156.292C41.6945 156.403 42.5443 156.704 43.3013 157.174C45.7924 158.559 47.2074 161.499 49.843 162.565C50.8394 162.974 51.9754 163.063 53.0366 163.342C54.0978 163.621 55.1789 164.164 55.6672 165.146C56.6387 167.079 54.8402 169.465 55.5177 171.518C56.1206 173.332 57.8893 174.009 58.8808 175.663C59.2843 176.386 59.4467 177.219 59.3441 178.04C59.2596 179.43 58.9219 180.792 58.3476 182.061C57.7042 183.319 56.9681 184.528 56.1455 185.678C56.1007 185.708 44.2081 192.563 44.1034 192.623Z" fill="#065C61"/>
<path d="M51.2078 188.797C51.2731 188.795 51.3356 188.77 51.384 188.726C51.4324 188.682 51.4636 188.622 51.4719 188.558C52.7523 178.414 47.9095 164.728 40.6753 158.056C40.6221 158.015 40.5555 157.996 40.4885 158.001C40.4216 158.007 40.3592 158.038 40.3136 158.087C40.268 158.136 40.2426 158.201 40.2422 158.268C40.2418 158.335 40.2666 158.4 40.3116 158.45C47.4313 165.022 52.1993 178.498 50.9388 188.493C50.9303 188.564 50.9502 188.635 50.9941 188.691C51.038 188.747 51.1023 188.783 51.1729 188.792L51.2078 188.797Z" fill="white"/>
<path d="M49.9681 175.803C50.01 175.803 50.0512 175.793 50.0885 175.774C50.1257 175.755 50.1579 175.727 50.1824 175.693C50.2247 175.637 50.2432 175.566 50.2339 175.496C50.2245 175.426 50.1882 175.363 50.1326 175.32C46.1468 172.33 40.0385 172.828 39.7844 172.868C39.7491 172.871 39.7146 172.882 39.6832 172.898C39.6517 172.915 39.6238 172.937 39.6011 172.964C39.5784 172.992 39.5614 173.023 39.5509 173.057C39.5405 173.091 39.5369 173.127 39.5403 173.162C39.5479 173.232 39.5821 173.297 39.6359 173.342C39.6897 173.388 39.759 173.411 39.8293 173.406C39.8941 173.406 45.9824 172.878 49.7938 175.748C49.8441 175.785 49.9055 175.805 49.9681 175.803Z" fill="white"/>
<path d="M49.3693 173.312C49.4377 173.312 49.5034 173.285 49.5526 173.238C49.6019 173.19 49.6308 173.126 49.6334 173.057C49.8177 168.409 53.3252 165.584 53.3601 165.584C53.3884 165.563 53.4121 165.536 53.4299 165.505C53.4477 165.474 53.4592 165.44 53.4639 165.405C53.4685 165.37 53.4661 165.334 53.4569 165.3C53.4476 165.266 53.4317 165.234 53.4099 165.205C53.365 165.15 53.3004 165.115 53.2297 165.106C53.159 165.098 53.0879 165.117 53.0313 165.161C51.8763 166.14 50.9323 167.343 50.2565 168.698C49.5808 170.053 49.1874 171.531 49.1003 173.043C49.0976 173.113 49.1227 173.182 49.1702 173.234C49.2178 173.286 49.2839 173.318 49.3544 173.322L49.3693 173.312Z" fill="white"/>
<path d="M115.274 184.183C110.856 181.631 107.069 178.116 104.195 173.9C101.321 169.684 99.4338 164.875 98.6734 159.83L95.141 136.378C94.4681 131.907 92.9085 127.615 90.554 123.755C88.1995 119.894 85.0974 116.543 81.4299 113.898L76.8213 110.575V113.206L79.3124 115.009C82.9705 117.649 86.0661 120.992 88.4185 124.841C90.7709 128.69 92.333 132.97 93.0136 137.429L96.6157 161.045C97.3838 166.079 99.2736 170.876 102.145 175.081C105.017 179.286 108.797 182.792 113.207 185.339L115.264 186.524V184.188L115.274 184.183Z" fill="#EBEBEB"/>
<path d="M155.336 127.111L151.804 103.66C151.131 99.1891 149.573 94.8976 147.219 91.0373C144.865 87.177 141.764 83.8258 138.098 81.1802L133.489 77.8521L76.8213 110.575L81.4299 113.904C85.0974 116.548 88.1995 119.899 90.554 123.76C92.9085 127.62 94.4681 131.912 95.141 136.383L98.6734 159.835C99.4338 164.88 101.321 169.69 104.195 173.906C107.069 178.122 110.856 181.636 115.274 184.188L171.942 151.47C167.521 148.919 163.733 145.404 160.858 141.187C157.983 136.97 156.096 132.159 155.336 127.111Z" fill="#FAFAFA"/>
<path d="M133.459 78.4449L137.804 81.5837C141.409 84.199 144.46 87.5034 146.779 91.3056C149.098 95.1079 150.64 99.3325 151.316 103.735L154.843 127.186C155.581 132.167 157.407 136.925 160.192 141.12C162.977 145.315 166.652 148.845 170.956 151.46L115.274 183.605C110.976 181.088 107.297 177.638 104.508 173.511C101.72 169.383 99.8926 164.682 99.1616 159.755L95.6342 136.304C94.9393 131.77 93.352 127.419 90.9643 123.503C88.5765 119.587 85.4358 116.184 81.7238 113.49L77.738 110.615L133.459 78.4449ZM133.489 77.8521L76.8213 110.575L81.4299 113.904C85.0974 116.548 88.1995 119.899 90.554 123.76C92.9085 127.62 94.4681 131.912 95.141 136.383L98.6734 159.835C99.4338 164.88 101.321 169.69 104.195 173.906C107.069 178.122 110.856 181.636 115.274 184.188L171.942 151.47C167.522 148.919 163.734 145.405 160.859 141.189C157.984 136.973 156.096 132.163 155.336 127.116L151.804 103.665C151.132 99.1932 149.573 94.9007 147.22 91.0396C144.866 87.1784 141.765 83.8263 138.098 81.1802L133.489 77.8521Z" fill="#E0E0E0"/>
<path d="M115.274 184.183L171.942 151.464V153.801L115.274 186.519V184.183Z" fill="#F5F5F5"/>
<path d="M87.409 108.812C85.4161 109.654 85.2218 111.377 86.9356 112.673C87.9078 113.324 89.0199 113.737 90.1816 113.878C91.3433 114.019 92.522 113.885 93.6218 113.485C95.6147 112.648 95.814 110.919 94.12 109.629C93.1458 108.971 92.0295 108.554 90.8628 108.412C89.6962 108.27 88.5125 108.407 87.409 108.812Z" fill="#065C61"/>
<path d="M89.5509 110.909C89.3854 110.927 89.2183 110.927 89.0527 110.909C88.6828 110.878 88.3275 110.751 88.0214 110.541C87.563 110.197 87.6128 109.748 88.1459 109.544C88.4955 109.413 88.8729 109.374 89.242 109.43C89.6116 109.466 89.9662 109.594 90.2734 109.803C90.7317 110.147 90.6769 110.595 90.1488 110.8C89.9572 110.87 89.755 110.907 89.5509 110.909Z" fill="white"/>
<path d="M92.356 110.864C91.7722 110.776 91.1756 110.838 90.6222 111.043L90.124 111.263C89.2222 111.651 89.1275 112.414 89.9147 113.001L90.1937 113.211C91.1369 113.349 92.0993 113.273 93.0087 112.987C93.8656 112.658 94.3888 112.279 94.4635 111.736L94.0799 111.482C93.5671 111.133 92.9738 110.92 92.356 110.864Z" fill="white"/>
<path d="M96.6114 105.135L113.252 95.5242C113.578 95.3522 113.943 95.2716 114.311 95.2909C114.679 95.3102 115.034 95.4287 115.34 95.6338L115.489 95.7534C115.612 95.8323 115.712 95.9433 115.777 96.0744C115.842 96.2055 115.87 96.3519 115.858 96.4977C115.846 96.6436 115.795 96.7835 115.71 96.9025C115.625 97.0215 115.509 97.1151 115.375 97.1733L98.7488 106.804C98.4268 106.966 98.066 107.035 97.7069 107.003C97.3478 106.972 97.0047 106.841 96.7161 106.625C96.6563 106.58 96.5965 106.535 96.5417 106.485C96.4168 106.418 96.3135 106.317 96.2439 106.194C96.1742 106.07 96.1411 105.929 96.1485 105.788C96.1558 105.646 96.2032 105.51 96.2852 105.394C96.3671 105.279 96.4803 105.189 96.6114 105.135Z" fill="#455A64"/>
<path d="M100.268 109.011L108.598 104.203C108.665 104.17 108.723 104.121 108.765 104.06C108.808 103.999 108.835 103.929 108.844 103.855C108.852 103.781 108.842 103.706 108.814 103.637C108.786 103.568 108.741 103.507 108.683 103.46L108.533 103.316C108.4 103.196 108.232 103.12 108.053 103.1C107.875 103.079 107.694 103.115 107.537 103.201L99.2515 108.044C99.1846 108.077 99.1272 108.127 99.0844 108.188C99.0415 108.25 99.0147 108.321 99.0063 108.395C98.9979 108.469 99.0081 108.544 99.0362 108.613C99.0642 108.683 99.1091 108.744 99.1668 108.791L99.2714 108.891C99.4053 109.011 99.5727 109.086 99.7509 109.108C99.9291 109.129 100.11 109.095 100.268 109.011Z" fill="#455A64"/>
<path opacity="0.2" d="M94.8226 118.144L139.722 92.211C140.018 92.0449 140.365 91.9932 140.697 92.0657C141.028 92.1383 141.322 92.33 141.521 92.6046L141.616 92.7391C141.706 92.8725 141.767 93.0231 141.796 93.1815C141.824 93.3398 141.82 93.5023 141.782 93.6588C141.745 93.8153 141.675 93.9623 141.578 94.0904C141.481 94.2185 141.358 94.3251 141.217 94.4032L96.2923 120.356C96.0003 120.518 95.6576 120.565 95.3327 120.487C95.0077 120.408 94.7242 120.21 94.5386 119.932L94.4439 119.788C94.3519 119.658 94.2885 119.51 94.2577 119.353C94.2269 119.197 94.2294 119.036 94.2652 118.881C94.3009 118.726 94.3691 118.58 94.4651 118.453C94.5612 118.326 94.683 118.22 94.8226 118.144Z" fill="black"/>
<path opacity="0.2" d="M97.5471 122.568L142.497 96.6252C142.635 96.5423 142.79 96.4892 142.95 96.4696C143.11 96.4499 143.273 96.464 143.427 96.5109C143.581 96.5578 143.724 96.6366 143.846 96.7421C143.968 96.8476 144.067 96.9775 144.136 97.1234L144.206 97.2679C144.34 97.5801 144.356 97.9304 144.252 98.2538C144.147 98.5771 143.929 98.8517 143.638 99.0266L98.6781 125.004C98.5441 125.085 98.3942 125.137 98.2386 125.156C98.0829 125.175 97.925 125.16 97.7755 125.113C97.626 125.066 97.4883 124.987 97.3715 124.882C97.2548 124.778 97.1618 124.649 97.0987 124.506L97.019 124.346C96.8656 124.038 96.8347 123.683 96.9327 123.353C97.0307 123.023 97.2503 122.742 97.5471 122.568Z" fill="black"/>
<path opacity="0.2" d="M99.5706 127.375L144.56 101.403C144.688 101.319 144.834 101.266 144.986 101.25C145.138 101.234 145.292 101.254 145.435 101.309C145.578 101.364 145.705 101.452 145.807 101.567C145.909 101.681 145.982 101.818 146.02 101.966L146.08 102.19C146.163 102.534 146.136 102.896 146.002 103.223C145.868 103.551 145.633 103.827 145.332 104.014L100.363 130.006C100.238 130.089 100.095 130.14 99.9453 130.155C99.796 130.169 99.6454 130.147 99.507 130.089C99.3685 130.031 99.2464 129.94 99.1515 129.824C99.0565 129.708 98.9917 129.57 98.9628 129.423C98.9628 129.343 98.918 129.264 98.8931 129.184C98.8 128.85 98.8154 128.494 98.9372 128.169C99.059 127.844 99.2808 127.566 99.5706 127.375Z" fill="black"/>
<path opacity="0.2" d="M100.861 132.617L127.012 117.516C127.129 117.429 127.266 117.376 127.411 117.362C127.555 117.348 127.701 117.374 127.831 117.438C127.962 117.501 128.072 117.599 128.151 117.72C128.23 117.842 128.274 117.983 128.278 118.128L128.333 118.477C128.37 118.838 128.307 119.203 128.15 119.53C127.992 119.858 127.747 120.135 127.441 120.331L101.289 135.447C101.173 135.533 101.036 135.586 100.892 135.6C100.748 135.614 100.603 135.588 100.472 135.526C100.342 135.463 100.231 135.366 100.152 135.245C100.073 135.124 100.028 134.983 100.024 134.839C100.024 134.714 99.9886 134.595 99.9687 134.47C99.9348 134.109 99.9999 133.746 100.157 133.419C100.314 133.093 100.557 132.815 100.861 132.617Z" fill="black"/>
<path d="M154.938 146.826L112.145 171.538C111.554 171.879 110.857 171.988 110.19 171.845C109.522 171.701 108.932 171.315 108.533 170.761C105.826 166.616 104.019 161.452 103.113 155.271L101.404 143.917C101.33 143.194 101.457 142.464 101.772 141.809C102.087 141.154 102.577 140.599 103.187 140.205L146.035 115.453C147.225 114.765 148.361 115.314 148.566 116.674L150.274 128.033C150.843 133.551 152.689 138.862 155.665 143.543C155.849 143.801 155.976 144.095 156.039 144.406C156.102 144.716 156.099 145.037 156.03 145.346C155.962 145.655 155.829 145.947 155.641 146.202C155.453 146.457 155.213 146.67 154.938 146.826Z" fill="#065C61"/>
<path opacity="0.7" d="M154.938 146.826L112.145 171.538C111.554 171.879 110.857 171.988 110.19 171.845C109.522 171.701 108.932 171.315 108.533 170.761C105.826 166.616 104.019 161.452 103.113 155.271L101.404 143.917C101.33 143.194 101.457 142.464 101.772 141.809C102.087 141.154 102.577 140.599 103.187 140.205L146.035 115.453C147.225 114.765 148.361 115.314 148.566 116.674L150.274 128.033C150.843 133.551 152.689 138.862 155.665 143.543C155.849 143.801 155.976 144.095 156.039 144.406C156.102 144.716 156.099 145.037 156.03 145.346C155.962 145.655 155.829 145.947 155.641 146.202C155.453 146.457 155.213 146.67 154.938 146.826Z" fill="white"/>
<path d="M112.145 171.538L154.937 146.826C155.213 146.669 155.452 146.457 155.641 146.202C155.829 145.947 155.961 145.655 156.03 145.346C156.099 145.036 156.101 144.716 156.039 144.406C155.976 144.095 155.848 143.801 155.665 143.543C154.265 141.373 153.125 139.047 152.267 136.612L138.989 132.866L133.095 145.949L139.498 151.096L117.157 139.338L105.733 165.31C106.486 167.216 107.424 169.043 108.533 170.766C108.932 171.319 109.523 171.704 110.19 171.847C110.858 171.989 111.554 171.879 112.145 171.538Z" fill="#065C61"/>
<path d="M130.092 130.091C131.666 129.184 133.166 129.936 133.445 131.775C133.551 132.742 133.388 133.719 132.973 134.598C132.558 135.478 131.907 136.225 131.093 136.757C129.519 137.669 128.019 136.912 127.745 135.073C127.637 134.107 127.799 133.13 128.213 132.25C128.628 131.37 129.278 130.623 130.092 130.091Z" fill="#065C61"/>
<path d="M143.085 161.469C142.942 161.481 142.799 161.481 142.656 161.469C142.345 161.44 142.047 161.332 141.789 161.155C141.411 160.871 141.456 160.498 141.894 160.308C142.185 160.2 142.499 160.167 142.806 160.214C143.116 160.244 143.413 160.35 143.673 160.522C144.051 160.811 144.006 161.185 143.568 161.374C143.414 161.434 143.25 161.466 143.085 161.469Z" fill="#065C61"/>
<path d="M145.432 161.434C144.944 161.358 144.444 161.41 143.982 161.583L143.548 161.763C142.796 162.086 142.716 162.724 143.374 163.217L143.603 163.392C144.393 163.506 145.198 163.441 145.96 163.202C146.672 162.928 147.111 162.61 147.176 162.156L146.852 161.947C146.43 161.657 145.941 161.48 145.432 161.434Z" fill="#065C61"/>
<path d="M146.254 159.556L144.65 159.635L144.216 160.009C144.199 160.024 144.184 160.042 144.175 160.062C144.165 160.083 144.16 160.106 144.16 160.129C144.16 160.152 144.165 160.174 144.175 160.195C144.184 160.215 144.199 160.234 144.216 160.248L144.65 160.592L146.279 160.527L146.254 159.556ZM144.54 160.233C144.525 160.233 144.509 160.23 144.495 160.224C144.481 160.218 144.468 160.209 144.457 160.198C144.447 160.187 144.438 160.174 144.433 160.159C144.427 160.145 144.425 160.129 144.426 160.114C144.426 160.083 144.438 160.054 144.459 160.033C144.481 160.011 144.51 159.999 144.54 159.999C144.556 159.998 144.571 160.001 144.586 160.006C144.6 160.012 144.613 160.02 144.624 160.031C144.636 160.042 144.645 160.054 144.651 160.069C144.657 160.083 144.66 160.098 144.66 160.114C144.66 160.145 144.647 160.176 144.625 160.198C144.602 160.221 144.572 160.233 144.54 160.233Z" fill="#065C61"/>
<path d="M154.559 156.716C154.559 156.96 154.245 157.164 154.061 157.264C153.713 157.458 153.33 157.582 152.935 157.628C152.556 157.184 153.283 156.412 154.559 156.716Z" fill="#065C61"/>
<path d="M154.619 155.147C153.443 154.175 151.6 153.816 150.304 154.559C149.009 155.301 148.755 156.87 149.946 157.842C151.136 158.813 153.264 158.838 154.549 158.086C155.835 157.334 155.8 156.113 154.619 155.147ZM152.676 154.917C152.785 154.865 152.907 154.847 153.026 154.865C153.145 154.884 153.256 154.939 153.344 155.022C153.382 155.054 153.412 155.095 153.43 155.141C153.449 155.188 153.455 155.238 153.449 155.287C153.443 155.337 153.425 155.384 153.396 155.425C153.367 155.466 153.329 155.498 153.284 155.52C153.175 155.58 153.05 155.605 152.926 155.592C152.802 155.579 152.685 155.527 152.591 155.446C152.553 155.409 152.524 155.364 152.507 155.314C152.49 155.264 152.486 155.211 152.494 155.159C152.503 155.107 152.523 155.058 152.555 155.016C152.587 154.974 152.628 154.94 152.676 154.917ZM150.314 156.731C150.275 156.695 150.245 156.649 150.228 156.599C150.21 156.548 150.205 156.494 150.214 156.442C150.222 156.389 150.243 156.339 150.276 156.296C150.308 156.254 150.35 156.22 150.399 156.198C150.507 156.145 150.628 156.127 150.747 156.145C150.866 156.164 150.976 156.219 151.062 156.302C151.1 156.334 151.13 156.375 151.149 156.421C151.168 156.467 151.175 156.517 151.17 156.566C151.164 156.616 151.146 156.663 151.118 156.704C151.09 156.745 151.051 156.778 151.007 156.801C150.898 156.87 150.769 156.902 150.64 156.893C150.511 156.884 150.388 156.834 150.289 156.751L150.314 156.731ZM154.22 157.458C153.669 157.753 153.052 157.902 152.427 157.892C151.884 157.9 151.346 157.786 150.852 157.558L154.201 155.67C154.378 155.785 154.527 155.939 154.635 156.12C154.744 156.302 154.81 156.505 154.828 156.716C154.792 156.885 154.716 157.042 154.605 157.175C154.495 157.307 154.355 157.412 154.196 157.478L154.22 157.458Z" fill="#065C61"/>
<path d="M161.644 150.767C161.525 150.577 161.375 150.409 161.201 150.269C160.79 149.917 160.287 149.691 159.752 149.617C159.216 149.544 158.671 149.627 158.181 149.855C157.97 149.952 157.787 150.103 157.651 150.292C157.515 150.481 157.43 150.702 157.405 150.933C157.38 151.165 157.415 151.399 157.508 151.612C157.6 151.826 157.746 152.012 157.932 152.152C158.037 152.235 158.149 152.308 158.266 152.371C159.761 153.223 162.476 153.328 162.476 153.328C162.45 152.412 162.161 151.523 161.644 150.767ZM160.344 151.709C160.104 151.837 159.834 151.897 159.563 151.883C159.292 151.869 159.029 151.781 158.804 151.629C158.716 151.561 158.646 151.472 158.602 151.37C158.559 151.267 158.542 151.156 158.554 151.045C158.566 150.934 158.606 150.828 158.671 150.738C158.736 150.647 158.823 150.575 158.924 150.528C159.158 150.419 159.419 150.379 159.676 150.415C159.932 150.45 160.172 150.559 160.369 150.727C160.767 151.051 160.782 151.46 160.349 151.709H160.344Z" fill="#065C61"/>
<path d="M215.774 156.029L209.367 174.727C209.327 174.846 209.25 174.95 209.147 175.023C209.045 175.096 208.922 175.135 208.797 175.135C208.671 175.135 208.548 175.096 208.446 175.023C208.344 174.95 208.267 174.846 208.226 174.727L201.904 155.879L215.774 156.029Z" fill="#FFA8A7"/>
<path d="M208.226 174.722C208.267 174.841 208.344 174.944 208.446 175.018C208.548 175.091 208.671 175.13 208.797 175.13C208.922 175.13 209.045 175.091 209.147 175.018C209.25 174.944 209.326 174.841 209.367 174.722L210.618 171.07C210.078 171.359 209.47 171.493 208.859 171.459C208.248 171.425 207.659 171.223 207.155 170.876L206.876 170.687L208.226 174.722Z" fill="#263238"/>
<path d="M202.143 72.5015V74.3299V76.5371L201.914 155.874C203.447 157.493 205.534 158.475 207.758 158.624C211.111 158.973 214.554 157.872 215.78 156.029L216.004 76.7364V72.5164C215.839 75.2467 202.024 75.2417 202.143 72.5015Z" fill="#065C61"/>
<path d="M202.103 79.4616V83.5471C202.063 84.7328 204.594 85.5001 207.499 85.7642C211.365 86.1329 215.919 85.0866 215.969 83.5172V80.5029V79.4268C215.909 80.9962 211.355 82.0474 207.499 81.6787C204.709 81.4197 202.267 80.6823 202.128 79.5912C202.108 79.5512 202.099 79.5063 202.103 79.4616Z" fill="#EBEBEB"/>
<path d="M202.114 80.4832C202.014 83.2334 215.875 83.1985 215.974 80.4483V76.3579C215.875 79.1081 202.024 79.143 202.114 76.3928V80.4832Z" fill="#065C61"/>
<path d="M202.143 72.5015V76.5371C202.024 79.2374 215.401 79.3172 216.004 76.7364C216.018 76.6859 216.026 76.6342 216.029 76.5819V72.5164C215.84 75.2467 202.024 75.2417 202.143 72.5015Z" fill="#EBEBEB"/>
<path d="M216.064 55.2031V55.0287C216.064 53.0607 212.965 51.4614 209.138 51.4614C205.312 51.4614 202.208 53.0607 202.208 55.0287V56.8871L202.143 72.5014C202.093 73.6722 204.585 74.4445 207.474 74.7235C211.341 75.1021 215.914 74.0808 215.999 72.5164L216.059 55.3276C216.069 55.2728 216.064 55.213 216.064 55.2031Z" fill="#F28F8F"/>
<path opacity="0.2" d="M209.138 58.596C212.966 58.596 216.069 56.9989 216.069 55.0287C216.069 53.0585 212.966 51.4614 209.138 51.4614C205.311 51.4614 202.208 53.0585 202.208 55.0287C202.208 56.9989 205.311 58.596 209.138 58.596Z" fill="white"/>
<path opacity="0.1" d="M215.988 76.7364L216.063 55.2031C215.973 56.8871 213.073 58.4814 209.96 58.596L209.735 158.689L209.367 174.727L215.774 156.029L215.988 76.7364Z" fill="black"/>
<path d="M193.574 93.4169C196.21 93.0333 199.458 95.0162 201.72 98.1949C203.982 101.374 211.864 109.111 212.731 111.572C213.359 113.366 212.99 116.739 209.278 115.154C205.686 113.625 194.232 102.39 194.232 102.39L193.574 93.4169Z" fill="#B16668"/>
<path d="M192.313 93.4169C193.162 93.2351 194.026 93.1383 194.894 93.1279C195.806 93.1877 197.853 93.7308 199.961 95.7835C202.068 97.8361 207.539 104.468 207.539 104.468C207.539 104.468 207.783 106.331 205.949 108.408C204.116 110.486 202.402 110.486 202.402 110.486L194.276 103.755L192.313 93.4169Z" fill="#37474F"/>
<path d="M210.169 107.92L215.949 99.5302V93.3672C215.949 93.3672 217.224 93.7957 217.732 95.7836C218.24 97.7715 218.873 100.083 218.619 101.762C218.365 103.441 214.364 113.695 212.207 115.14C210.05 116.584 210.169 107.92 210.169 107.92Z" fill="#B16668"/>
<path d="M184.157 90.632L185.283 97.7267L192.313 97.348L191.307 89.1074L184.157 90.632Z" fill="#B16668"/>
<path d="M179.429 81.9326C179.429 81.9326 177.755 84.4736 177.934 84.7227C178.114 84.9718 179.359 85.2209 179.359 85.2209L179.429 81.9326Z" fill="#9A4A4D"/>
<path d="M184.062 74.898C180.674 75.6154 179.693 77.1051 179.374 82.4909C179.04 88.1209 179.613 89.8895 180.371 90.6468C180.869 91.1451 183.644 91.2497 185.044 90.8661C186.793 90.3678 190.754 88.9778 192.607 86.1479C194.784 82.8198 195.357 78.3009 193.025 76.4524C189.742 73.8418 185.462 74.609 184.062 74.898Z" fill="#B16668"/>
<path d="M184.222 91.0207C184.826 90.9111 185.422 90.7613 186.006 90.5723C185.562 91.0789 184.966 91.4285 184.307 91.5687L184.222 91.0207Z" fill="#9A4A4D"/>
<path d="M179.18 76.6069C179.651 76.8693 180.153 77.0718 180.675 77.2098C181.502 77.4489 181.377 77.7578 181.492 78.5151C181.593 79.199 181.921 79.829 182.423 80.3037C182.747 80.5977 182.986 80.6226 183.096 81.071C183.148 81.5395 183.148 82.0124 183.096 82.481C183.096 83.4176 183.704 84.1251 183.993 82.8746C183.993 82.8746 184.531 80.792 186.285 81.056C188.038 81.3201 188.193 83.2931 187.356 84.8425C186.858 85.7892 185.483 85.5401 185.483 85.5401C185.433 86.4118 185.572 87.284 185.888 88.0978C186.204 88.9117 186.691 89.6483 187.316 90.2582C187.316 90.2582 189.06 91.5536 191.8 90.2084C192.965 88.715 194.008 87.1305 194.919 85.4703C196.135 83.3578 197.186 80.7571 196.772 78.271C196.64 77.3403 196.228 76.4717 195.591 75.7799C195.415 75.6232 195.274 75.4315 195.176 75.217C195.078 75.0025 195.026 74.77 195.024 74.5343C194.919 73.9725 194.619 73.4659 194.177 73.1044C193.83 72.83 193.415 72.6543 192.977 72.5955C192.538 72.5368 192.092 72.5973 191.685 72.7706C191.651 72.3365 191.48 71.9243 191.198 71.5932C190.915 71.262 190.534 71.0289 190.111 70.9272C189.254 70.7479 188.361 70.8711 187.585 71.2759C187.357 70.8681 187.031 70.524 186.636 70.2751C186.241 70.0262 185.79 69.8804 185.324 69.8512C184.858 69.8219 184.392 69.9101 183.968 70.1077C183.545 70.3052 183.179 70.6059 182.902 70.982C182.773 70.7843 182.6 70.6198 182.395 70.502C182.191 70.3843 181.961 70.3165 181.726 70.3044C181.256 70.2877 180.787 70.3621 180.346 70.5236C179.971 70.6349 179.61 70.7887 179.27 70.982C178.655 71.3623 178.176 71.9266 177.901 72.5947C177.625 73.2628 177.567 74.0008 177.735 74.7037C177.832 75.1032 178.011 75.4785 178.259 75.8059C178.508 76.1334 178.821 76.4061 179.18 76.6069Z" fill="#263238"/>
<path d="M195.059 76.0439L197.086 74.8482C197.008 74.7151 196.904 74.5987 196.78 74.5057C196.657 74.4128 196.516 74.345 196.367 74.3064C196.217 74.2678 196.061 74.259 195.908 74.2806C195.755 74.3022 195.608 74.3537 195.475 74.4322C195.342 74.5107 195.225 74.6147 195.132 74.7382C195.039 74.8617 194.971 75.0022 194.933 75.1519C194.894 75.3016 194.885 75.4574 194.907 75.6104C194.929 75.7635 194.98 75.9108 195.059 76.0439Z" fill="#263238"/>
<path d="M196.952 181.363L196.997 181.817C197.079 182.416 197.094 183.023 197.041 183.625C197.041 183.855 196.99 184.082 196.894 184.291C196.798 184.5 196.658 184.686 196.483 184.836C196.069 185.063 195.624 185.231 195.163 185.334C194.134 185.587 193.049 185.48 192.089 185.03C191.292 184.647 190.669 184.034 189.807 183.8C188.917 183.578 188.011 183.428 187.097 183.351C186.69 183.318 186.288 183.245 185.896 183.132C185.598 183.027 185.31 182.897 185.034 182.743C184.072 182.288 183.204 181.654 182.478 180.875C182.02 180.357 181.704 179.729 181.562 179.052C181.482 178.648 181.322 177.497 181.985 177.527C185.248 177.671 188.462 178.374 191.74 178.334C191.953 178.319 192.166 178.319 192.378 178.334C192.775 178.418 193.15 178.588 193.474 178.832C193.609 178.949 193.77 179.032 193.943 179.074C194.116 179.117 194.297 179.118 194.471 179.076C195.031 178.99 195.602 178.998 196.16 179.101C196.281 179.119 196.396 179.163 196.498 179.233C196.599 179.302 196.682 179.393 196.742 179.5C196.774 179.577 196.791 179.66 196.792 179.744C196.847 180.327 196.902 180.825 196.952 181.363Z" fill="#263238"/>
<path d="M196.618 177.457L196.448 179.914C196.289 180.85 193.1 181.408 192.462 179.769L192.148 176.979L196.618 177.457Z" fill="#B16668"/>
<path d="M184.476 187.183C184.476 187.183 184.865 188.458 185.069 189.574C185.228 190.461 185.452 191.946 185.129 192.603C184.805 193.261 183.589 193.659 181.716 193.6C180.505 193.56 178.602 194.342 177.292 195.035C175.981 195.727 173.161 195.981 171.751 195.787C170.092 195.553 168.393 194.546 168.139 193.854C167.885 193.161 168.259 192.449 172.215 190.864C172.249 190.864 177.695 189.21 179.648 187.163L184.476 187.183Z" fill="#263238"/>
<path d="M184.511 185.603C184.511 185.603 184.481 186.684 184.476 187.307C184.471 187.93 183.714 188.832 181.821 188.722C180.49 188.642 179.574 188.264 179.648 187.173L179.683 185.593L184.511 185.603Z" fill="#B16668"/>
<path d="M197.903 158.569C197.34 153.786 196.907 151.041 196.907 151.041C196.907 151.041 197.007 144.375 197.405 138.162C197.829 131.446 197.734 122.991 197.903 121.317C197.903 121.317 176.335 116.714 176.156 124.491C175.957 133.529 176.555 152.227 176.684 154.663C176.864 158.081 176.873 161.638 177.451 167.184C178.024 172.664 179.683 185.593 179.683 185.593C180.426 185.99 181.255 186.198 182.097 186.198C182.939 186.198 183.769 185.99 184.511 185.593C184.511 185.593 186.39 170.093 186.315 166.162C186.27 163.305 185.996 160.456 185.498 157.643L187.197 140.095C187.197 140.095 187.864 145.521 188.044 148.939C188.223 152.357 188.691 154.444 189.538 160.806C190.271 166.322 192.129 177.97 192.129 177.97C192.836 178.368 193.639 178.562 194.45 178.53C195.26 178.497 196.045 178.239 196.718 177.786C196.718 177.786 198.466 163.357 197.903 158.569Z" fill="#065C61"/>
<path opacity="0.3" d="M197.903 158.569C197.34 153.786 196.907 151.041 196.907 151.041C196.907 151.041 197.007 144.375 197.405 138.162C197.829 131.446 197.734 122.991 197.903 121.317C197.903 121.317 176.335 116.714 176.156 124.491C175.957 133.529 176.555 152.227 176.684 154.663C176.864 158.081 176.873 161.638 177.451 167.184C178.024 172.664 179.683 185.593 179.683 185.593C180.426 185.99 181.255 186.198 182.097 186.198C182.939 186.198 183.769 185.99 184.511 185.593C184.511 185.593 186.39 170.093 186.315 166.162C186.27 163.305 185.996 160.456 185.498 157.643L187.197 140.095C187.197 140.095 187.864 145.521 188.044 148.939C188.223 152.357 188.691 154.444 189.538 160.806C190.271 166.322 192.129 177.97 192.129 177.97C192.836 178.368 193.639 178.562 194.45 178.53C195.26 178.497 196.045 178.239 196.718 177.786C196.718 177.786 198.466 163.357 197.903 158.569Z" fill="black"/>
<path opacity="0.15" d="M195.403 131.939C195.403 131.939 193.908 134.406 189.374 136.209L188.109 140.444L187.974 147.888C187.8 145.491 187.536 142.87 187.197 140.095L187.695 135.731C187.695 135.731 192.717 134.216 195.403 131.939Z" fill="black"/>
<path d="M198.735 98.0055C197.868 94.9215 195.831 93.5614 193.574 93.4169C193.001 93.382 191.835 93.4169 191.835 93.4169C191.994 94.7272 187.969 95.6489 184.86 94.9115C183.913 95.1557 182.369 95.5094 181.567 95.7735C179.32 96.5208 176.619 99.3308 176.27 106.67C176.27 106.67 175.912 122.438 176.021 127.022C181.577 129.364 186.942 129.658 190.176 129.015C196.917 127.705 198.023 124.815 198.023 124.815C198.023 124.815 197.963 120.829 197.709 114.417C198.835 105.349 199.109 99.3408 198.735 98.0055Z" fill="#455A64"/>
<path d="M172.454 124.142C173.048 124.512 173.539 125.026 173.883 125.635C174.227 126.244 174.412 126.93 174.422 127.63C174.517 129.065 174.517 130.619 175.189 131.919C175.299 132.134 175.887 132.617 176.116 132.547V130.714C176.49 130.24 177.511 129.359 177.775 128.816C178.214 127.909 177.7 126.823 177.965 125.826C178.134 125.442 178.248 125.036 178.303 124.62C178.34 124.105 178.258 123.589 178.064 123.11C177.87 122.631 177.568 122.204 177.182 121.86C176.186 121.058 175.309 120.062 174.417 119.165C173.261 118.004 171.657 116.295 170.501 115.129L178.259 107.691C179.153 106.838 179.901 105.843 180.471 104.746C181.741 102.305 183.46 98.0253 181.542 95.7783C178.777 95.7783 177.207 96.2018 174.382 99.4951C171.946 102.335 164.169 111.652 163.167 113.231C162.166 114.81 161.593 115.892 163.511 117.645C165.074 118.979 166.707 120.228 168.404 121.387C169.714 122.329 171.144 123.211 172.454 124.142Z" fill="#B16668"/>
<path d="M170.506 115.154C169.81 115.827 169.007 116.379 168.129 116.788C169.169 116.645 170.164 116.274 171.044 115.702L170.506 115.154Z" fill="#9A4A4D"/>
<path d="M182.414 95.5293C181.292 95.4765 180.168 95.5618 179.066 95.7834C177.387 96.1471 176.256 96.9991 173.347 100.292C170.437 103.586 168.394 106.271 168.394 106.271C168.394 106.271 167.557 108.124 169.889 110.227C172.221 112.329 174.323 111.966 174.323 111.966L180.86 105.608C180.86 105.608 185.523 100.731 182.414 95.5293Z" fill="#37474F"/>
</svg>
