<svg width="131" height="131" viewBox="0 0 131 131" fill="none" xmlns="http://www.w3.org/2000/svg">
<circle cx="66" cy="66" r="55.5" fill="white" stroke="#065C61"/>
<circle cx="65.5" cy="65.5" r="65" stroke="#065C61"/>
<path d="M57.8 87.72C57.32 85.8533 56.9067 84.1067 56.56 82.48C56.24 80.88 56 79.4267 55.84 78.12C55.68 76.84 55.6 75.7467 55.6 74.84C55.6 72.9733 55.9067 71.4133 56.52 70.16C57.16 68.9067 58 67.9067 59.04 67.16C60.1067 66.3867 61.2667 65.84 62.52 65.52C63.7733 65.1733 65.0267 65 66.28 65C67.56 65 68.7333 65.1067 69.8 65.32C69.8533 64.4933 69.7867 63.7467 69.6 63.08C69.44 62.4133 69.1867 61.84 68.84 61.36C68.52 60.88 68.12 60.5067 67.64 60.24C67.1867 59.9733 66.6933 59.84 66.16 59.84C65.6533 59.84 65.1467 59.9733 64.64 60.24C64.1333 60.48 63.6533 60.84 63.2 61.32C62.7733 61.8 62.36 62.4133 61.96 63.16L57.6 60.76C58.32 59.1333 59.1733 57.8533 60.16 56.92C61.1467 55.96 62.1733 55.28 63.24 54.88C64.3333 54.4533 65.4 54.24 66.44 54.24C68.04 54.24 69.4133 54.5867 70.56 55.28C71.7333 55.9467 72.68 56.8267 73.4 57.92C74.12 58.9867 74.6533 60.1333 75 61.36C75.3467 62.5867 75.52 63.76 75.52 64.88C75.52 65.7333 75.4267 66.5867 75.24 67.44C75.08 68.2667 74.88 69.0133 74.64 69.68C74.4267 70.3467 74.2133 70.8667 74 71.24C72.5333 70.84 71.1467 70.5467 69.84 70.36C68.5333 70.1733 67.3467 70.12 66.28 70.2C65.24 70.2533 64.3333 70.4667 63.56 70.84C62.8133 71.1867 62.2267 71.7067 61.8 72.4C61.4 73.0933 61.2 73.9733 61.2 75.04C61.2 76.0267 61.28 77.1467 61.44 78.4C61.6 79.68 61.8267 81 62.12 82.36C62.4133 83.72 62.7467 85.0667 63.12 86.4L57.8 87.72Z" fill="#065C61"/>
</svg>
