<svg width="212" height="158" viewBox="0 0 212 158" fill="none" xmlns="http://www.w3.org/2000/svg">
<path d="M212 138.817H0V138.923H212V138.817Z" fill="#EBEBEB"/>
<path d="M190.758 145.64H176.715V145.746H190.758V145.64Z" fill="#EBEBEB"/>
<path d="M140.437 146.793H123.808V146.899H140.437V146.793Z" fill="#EBEBEB"/>
<path d="M176.291 141.705H152.114V141.811H176.291V141.705Z" fill="#EBEBEB"/>
<path d="M103.079 142.417H73.9797V142.523H103.079V142.417Z" fill="#EBEBEB"/>
<path d="M109.536 142.417H106.852V142.523H109.536V142.417Z" fill="#EBEBEB"/>
<path d="M95.4596 144.206H41.6921V144.312H95.4596V144.206Z" fill="#EBEBEB"/>
<path d="M100.488 119.907H18.6177C17.9764 119.906 17.3617 119.65 16.9085 119.197C16.4554 118.743 16.2009 118.128 16.2009 117.486V2.39984C16.2065 1.76215 16.4635 1.15242 16.916 0.703085C17.3685 0.253746 17.98 0.00109239 18.6177 0H100.488C101.13 0 101.746 0.255073 102.2 0.709106C102.654 1.16314 102.909 1.77894 102.909 2.42104V117.486C102.909 118.128 102.654 118.744 102.2 119.198C101.746 119.652 101.13 119.907 100.488 119.907ZM18.6177 0.0848003C18.0045 0.0859235 17.4167 0.330324 16.9835 0.764356C16.5503 1.19839 16.3069 1.78659 16.3069 2.39984V117.486C16.3069 118.099 16.5503 118.688 16.9835 119.122C17.4167 119.556 18.0045 119.8 18.6177 119.801H100.488C101.102 119.8 101.69 119.556 102.124 119.122C102.558 118.688 102.802 118.1 102.803 117.486V2.39984C102.802 1.7862 102.558 1.19801 102.124 0.764097C101.69 0.330186 101.102 0.0859211 100.488 0.0848003H18.6177Z" fill="#EBEBEB"/>
<path d="M192.204 119.907H110.329C109.687 119.906 109.072 119.651 108.619 119.197C108.165 118.743 107.909 118.128 107.908 117.486V2.39984C107.915 1.76177 108.173 1.15204 108.626 0.702819C109.079 0.253598 109.691 0.00108047 110.329 0H192.204C192.841 0.00220671 193.451 0.255354 193.903 0.704573C194.354 1.15379 194.611 1.76289 194.616 2.39984V117.486C194.616 118.127 194.362 118.741 193.91 119.195C193.458 119.649 192.844 119.905 192.204 119.907ZM110.329 0.0848003C109.716 0.0859211 109.127 0.330186 108.693 0.764097C108.26 1.19801 108.015 1.7862 108.014 2.39984V117.486C108.015 118.1 108.26 118.688 108.693 119.122C109.127 119.556 109.716 119.8 110.329 119.801H192.204C192.817 119.8 193.405 119.556 193.839 119.122C194.273 118.688 194.518 118.1 194.519 117.486V2.39984C194.518 1.7862 194.273 1.19801 193.839 0.764097C193.405 0.330186 192.817 0.0859211 192.204 0.0848003H110.329Z" fill="#EBEBEB"/>
<path d="M33.2164 138.817H48.0691L48.0691 88.9211H33.2164L33.2164 138.817Z" fill="#F5F5F5"/>
<path d="M33.2121 138.817H35.6628L35.6628 88.9211H33.2121L33.2121 138.817Z" fill="#F0F0F0"/>
<path d="M102.18 90.5703H45.7795V103.053H102.18V90.5703Z" fill="#E6E6E6"/>
<path d="M102.18 106.793H45.7795V109.676H102.18V106.793Z" fill="#E6E6E6"/>
<path d="M98.881 88.9209H33.2119V93.2542H98.881V88.9209Z" fill="#F0F0F0"/>
<path d="M98.8812 138.817H113.734V88.9211H98.8812V138.817Z" fill="#F5F5F5"/>
<path d="M98.8813 138.817H101.332V88.9211H98.8813V138.817Z" fill="#F0F0F0"/>
<path d="M145.966 138.818V61.7178H120.471V138.818H145.966Z" fill="#F0F0F0"/>
<path d="M144.567 86.3432V63.6465H121.871V86.3432H144.567Z" fill="#E6E6E6"/>
<path d="M144.567 111.08V88.3828H121.871V111.08H144.567Z" fill="#E6E6E6"/>
<path d="M144.567 135.811V113.114H121.871V135.811H144.567Z" fill="#E6E6E6"/>
<path d="M130.799 86.3471V63.6504H121.874V86.3471H130.799Z" fill="#E0E0E0"/>
<path d="M130.795 111.08V88.3828H121.87V111.08H130.795Z" fill="#E0E0E0"/>
<path d="M130.799 135.816V113.119H121.874V135.816H130.799Z" fill="#E0E0E0"/>
<path d="M152.89 138.813V61.7129H145.966V138.813H152.89Z" fill="#F5F5F5"/>
<path d="M173.225 138.818V61.7178H147.73V138.818H173.225Z" fill="#F0F0F0"/>
<path d="M171.822 86.3471V63.6504H149.125V86.3471H171.822Z" fill="#E6E6E6"/>
<path d="M171.826 111.08V88.3828H149.129V111.08H171.826Z" fill="#E6E6E6"/>
<path d="M171.826 135.816V113.119H149.129V135.816H171.826Z" fill="#E6E6E6"/>
<path d="M158.059 86.3471V63.6504H149.134V86.3471H158.059Z" fill="#E0E0E0"/>
<path d="M158.054 111.08V88.3828H149.129V111.08H158.054Z" fill="#E0E0E0"/>
<path d="M158.054 135.811V113.114H149.129V135.811H158.054Z" fill="#E0E0E0"/>
<path d="M180.149 138.818V61.7178H173.225V138.818H180.149Z" fill="#F5F5F5"/>
<path d="M164.619 84.6258C166.907 82.3375 166.907 78.6274 164.619 76.339C162.33 74.0507 158.62 74.0507 156.332 76.339C154.044 78.6273 154.044 82.3375 156.332 84.6258C158.62 86.9142 162.33 86.9142 164.619 84.6258Z" fill="#F5F5F5"/>
<path d="M140.484 105.22C140.443 106.747 139.808 108.198 138.713 109.264C137.618 110.33 136.15 110.926 134.623 110.926C133.095 110.926 131.627 110.33 130.532 109.264C129.437 108.198 128.802 106.747 128.761 105.22H140.484Z" fill="#F0F0F0"/>
<path d="M140.484 100.836C140.505 101.619 140.369 102.398 140.084 103.128C139.799 103.858 139.37 104.523 138.824 105.084C138.278 105.645 137.624 106.091 136.903 106.396C136.181 106.701 135.406 106.858 134.622 106.858C133.839 106.858 133.064 106.701 132.342 106.396C131.62 106.091 130.967 105.645 130.42 105.084C129.874 104.523 129.446 103.858 129.161 103.128C128.875 102.398 128.739 101.619 128.76 100.836H140.484Z" fill="#F0F0F0"/>
<path d="M150.669 135.812H169.096V116.388H150.669V135.812Z" fill="#F0F0F0"/>
<path d="M171.822 116.388H169.096V135.811H171.822V116.388Z" fill="#E0E0E0"/>
<path d="M155.464 61.7178H162.791V33.3267H155.464V61.7178Z" fill="#E6E6E6"/>
<path d="M135.599 61.7175H159.916L163.587 28.4844H139.271L135.599 61.7175Z" fill="#F0F0F0"/>
<path d="M132.966 61.7175H158.08L161.756 28.4844H136.638L132.966 61.7175Z" fill="#F5F5F5"/>
<path d="M150.842 61.7175H155.718L150.1 28.4844H145.229L150.842 61.7175Z" fill="#FAFAFA"/>
<path d="M146.5 61.7175H148.391L142.773 28.4844H140.882L146.5 61.7175Z" fill="#FAFAFA"/>
<path d="M87.3184 77.596V13.7119L30.0784 13.7119L30.0784 77.596H87.3184Z" fill="#EBEBEB"/>
<path d="M87.8359 77.5921V13.708H87.3187V77.5921H87.8359Z" fill="#E0E0E0"/>
<path d="M34.3184 73.3516H83.0784V17.9475L34.3184 17.9475L34.3184 73.3516Z" fill="#F5F5F5"/>
<path d="M62.5442 76.3193H76.2776V57.0994H62.5442V76.3193Z" fill="white"/>
<path d="M42.4043 69.5529H56.1334L57.1213 50.333H43.3922L42.4043 69.5529Z" fill="white"/>
<path d="M70.21 35.3531H83.9391L84.927 16.1289H71.1979L70.21 35.3531Z" fill="white"/>
<path d="M52.1703 46.3538L65.8862 46.9551L66.7279 27.7536L53.012 27.1524L52.1703 46.3538Z" fill="white"/>
<path d="M32.5108 41.0149L46.2341 40.6172L45.6774 21.4053L31.954 21.803L32.5108 41.0149Z" fill="white"/>
<path d="M106 157.966C151.403 157.966 188.21 155.817 188.21 153.166C188.21 150.515 151.403 148.366 106 148.366C60.5974 148.366 23.791 150.515 23.791 153.166C23.791 155.817 60.5974 157.966 106 157.966Z" fill="#F5F5F5"/>
<path d="M68.7898 56.0049C70.5197 57.0903 72.3387 58.1842 74.1322 59.223C75.9257 60.2618 77.7489 61.271 79.5721 62.1444C80.0258 62.3691 80.4795 62.5684 80.9332 62.7719C81.1579 62.8737 81.3826 62.9542 81.6073 63.0475L81.9465 63.1874L82.2221 63.2892C82.8046 63.5431 83.4478 63.624 84.075 63.5224C84.7601 63.3498 85.3748 62.9691 85.8346 62.4327C86.1347 62.1103 86.4083 61.7644 86.6529 61.3982C86.7801 61.2074 86.9031 61.0081 87.0176 60.8046L87.3441 60.2067L89.7439 60.7579C89.7088 61.0771 89.6565 61.3942 89.587 61.7077C89.5192 62.0045 89.4429 62.3013 89.3496 62.5981C89.1649 63.2064 88.9132 63.7923 88.5991 64.345C88.2534 64.9483 87.8252 65.5006 87.3271 65.9858C86.7852 66.5206 86.1501 66.9517 85.453 67.2578C84.7353 67.5688 83.9662 67.7442 83.1846 67.7751C82.4529 67.8084 81.7203 67.7356 81.0095 67.5589C80.8484 67.5207 80.6533 67.4783 80.5177 67.4317L80.0937 67.3002C79.8181 67.2112 79.534 67.1264 79.2669 67.0289C78.7326 66.8296 78.1814 66.643 77.6684 66.4226C75.6221 65.5752 73.6247 64.614 71.6857 63.5436C70.7233 63.0178 69.7735 62.4794 68.8407 61.9112C67.9079 61.343 66.9878 60.7834 66.0508 60.1516L68.7898 56.0049Z" fill="#FFC3BD"/>
<path d="M63.8589 59.0283C64.5076 62.1574 72.3813 66.6603 72.3813 66.6603L75.2517 59.1173C75.2517 59.1173 73.0088 57.7139 69.6592 55.4751C66.3096 53.2364 63.1423 55.5939 63.8589 59.0283Z" fill="#263238"/>
<path d="M86.4324 61.4161L88.7093 57.8418L90.4053 61.7341C90.4053 61.7341 89.0569 63.7778 86.9751 62.7263L86.4324 61.4161Z" fill="#FFC3BD"/>
<path d="M91.6139 56.4883L92.729 59.4054L90.4097 61.7289L88.7095 57.8408L91.6139 56.4883Z" fill="#FFC3BD"/>
<path d="M68.8662 76.0732L64.9696 54.4492C64.2527 54.578 63.5682 54.8468 62.9551 55.2402C62.3421 55.6336 61.8126 56.144 61.3968 56.742C60.981 57.3401 60.6871 58.0143 60.5319 58.7259C60.3767 59.4376 60.3632 60.1729 60.4922 60.8898L62.4214 71.6085C62.6855 73.0544 63.5124 74.3365 64.7206 75.1735C65.9288 76.0105 67.4197 76.3341 68.8662 76.0732Z" fill="#065C61"/>
<path opacity="0.3" d="M68.8662 76.0732L64.9696 54.4492C64.2527 54.578 63.5682 54.8468 62.9551 55.2402C62.3421 55.6336 61.8126 56.144 61.3968 56.742C60.981 57.3401 60.6871 58.0143 60.5319 58.7259C60.3767 59.4376 60.3632 60.1729 60.4922 60.8898L62.4214 71.6085C62.6855 73.0544 63.5124 74.3365 64.7206 75.1735C65.9288 76.0105 67.4197 76.3341 68.8662 76.0732Z" fill="black"/>
<path d="M83.7953 97.477L81.0647 97.9688C80.5952 98.0531 80.1132 98.0365 79.6506 97.9201C79.188 97.8038 78.7555 97.5903 78.3817 97.294C78.0079 96.9976 77.7015 96.6251 77.4828 96.2012C77.264 95.7774 77.138 95.3118 77.113 94.8355L75.9894 73.2115C75.9457 72.3944 76.2021 71.5895 76.7105 70.9484C77.2189 70.3072 77.9441 69.8741 78.7497 69.7304L83.7995 68.8188C84.3417 68.7221 84.8994 68.7601 85.4236 68.9295C85.9477 69.0988 86.4222 69.3944 86.8053 69.7901C87.1884 70.1858 87.4685 70.6695 87.6209 71.1988C87.7732 71.7281 87.7932 72.2868 87.6791 72.8256L85.6481 82.3317C85.5793 82.6591 85.5593 82.9949 85.5888 83.3281L86.5301 93.873C86.6053 94.7065 86.3665 95.538 85.8607 96.2046C85.3548 96.8713 84.6182 97.325 83.7953 97.477Z" fill="#065C61"/>
<path opacity="0.2" d="M83.7996 68.8107L78.7498 69.7181C77.9451 69.8634 77.2209 70.2971 76.7128 70.9378C76.2048 71.5786 75.9476 72.3825 75.9895 73.1991L76.3584 80.3775C79.6882 79.8121 83.0265 79.3415 86.3733 78.9655L87.6792 72.8091C87.7928 72.2707 87.7723 71.7126 87.6196 71.184C87.4669 70.6553 87.1867 70.1723 86.8035 69.7774C86.4203 69.3825 85.946 69.0878 85.4222 68.9193C84.8984 68.7507 84.3412 68.7134 83.7996 68.8107Z" fill="black"/>
<path d="M87.9716 88.9796L83.3796 89.8022L83.4178 81.8395L88.0097 81.0127L87.9716 88.9796Z" fill="#065C61"/>
<path d="M88.6673 84.8711C88.6673 87.0716 88.345 88.9118 87.9719 88.9754C87.5988 89.039 87.302 87.3175 87.3105 85.117C87.319 82.9164 87.6327 81.0805 88.0101 81.0127C88.3874 80.9448 88.68 82.679 88.6673 84.8711Z" fill="#065C61"/>
<path opacity="0.2" d="M88.6673 84.8711C88.6673 87.0716 88.345 88.9118 87.9719 88.9754C87.5988 89.039 87.302 87.3175 87.3105 85.117C87.319 82.9164 87.6327 81.0805 88.0101 81.0127C88.3874 80.9448 88.68 82.679 88.6673 84.8711Z" fill="black"/>
<path d="M69.1971 49.0602C67.6881 49.3358 66.3498 50.1983 65.4756 51.4588C64.6013 52.7193 64.2624 54.2749 64.5331 55.7849L67.9845 74.9624C68.259 76.472 69.1213 77.8109 70.3821 78.6854C71.6428 79.5598 73.1991 79.8983 74.7091 79.6264C85.979 77.6005 97.4229 76.7042 108.871 76.9509L120.645 77.2096L113.107 35.3057L102.159 39.6517C91.5128 43.8789 80.4706 47.0308 69.1971 49.0602Z" fill="#065C61"/>
<path opacity="0.3" d="M99.4287 40.7031L105.941 76.9169C106.514 76.9169 107.09 76.9169 107.663 76.9169L101.031 40.0713C100.489 40.3087 99.963 40.5123 99.4287 40.7031Z" fill="black"/>
<path d="M118.644 55.9674C120.726 67.5383 121.612 77.0614 120.636 77.2395C119.661 77.4175 117.172 68.1786 115.091 56.6076C113.009 45.0367 112.123 35.5136 113.098 35.3355C114.073 35.1575 116.562 44.3752 118.644 55.9674Z" fill="#065C61"/>
<path opacity="0.2" d="M118.644 55.9674C120.726 67.5383 121.612 77.0614 120.636 77.2395C119.661 77.4175 117.172 68.1786 115.091 56.6076C113.009 45.0367 112.123 35.5136 113.098 35.3355C114.073 35.1575 116.562 44.3752 118.644 55.9674Z" fill="black"/>
<path opacity="0.2" d="M60.8188 91.3961C60.6193 91.2678 60.4022 91.1692 60.1743 91.1035C62.1247 96.3569 65.2835 102.484 67.2254 108.462C67.4374 98.5786 65.2962 94.1775 60.8188 91.3961Z" fill="black"/>
<path d="M62.5021 41.0806C62.475 41.0895 62.446 41.0907 62.4182 41.0839C62.3905 41.0772 62.3652 41.0628 62.3453 41.0424C62.2243 40.8927 62.0679 40.7755 61.8902 40.7015C61.7125 40.6275 61.5192 40.5989 61.3277 40.6184C61.3083 40.6227 61.2883 40.6228 61.2689 40.6188C61.2495 40.6148 61.2312 40.6067 61.2152 40.5951C61.1992 40.5835 61.1858 40.5686 61.1759 40.5514C61.1661 40.5342 61.16 40.5152 61.1581 40.4954C61.1539 40.4543 61.165 40.413 61.1892 40.3794C61.2135 40.3458 61.2491 40.3222 61.2895 40.3131C61.5261 40.2831 61.7664 40.3128 61.9886 40.3994C62.2108 40.4861 62.4077 40.6269 62.5615 40.8092C62.5895 40.8391 62.6051 40.8785 62.6051 40.9194C62.6051 40.9604 62.5895 40.9998 62.5615 41.0297C62.5478 41.0527 62.5269 41.0705 62.5021 41.0806Z" fill="#263238"/>
<path d="M166.348 37.5376L161.544 19.6872C161.45 19.3391 161.289 19.0129 161.07 18.7271C160.85 18.4414 160.576 18.2017 160.264 18.0217C159.952 17.8418 159.607 17.7251 159.25 17.6784C158.892 17.6317 158.529 17.6559 158.181 17.7495L123.413 27.0775C122.71 27.2672 122.111 27.7284 121.748 28.3597C121.384 28.991 121.286 29.7407 121.476 30.4441L126.275 48.2945C126.464 48.9976 126.924 49.597 127.555 49.9611C128.185 50.3252 128.934 50.4242 129.638 50.2364L134.543 48.9178L141.298 52.8058L139.86 47.4889L164.41 40.8914C165.11 40.7016 165.707 40.2424 166.07 39.614C166.433 38.9857 166.533 38.2392 166.348 37.5376Z" fill="#065C61"/>
<path opacity="0.2" d="M166.348 37.5376L161.544 19.6872C161.45 19.3391 161.289 19.0129 161.07 18.7271C160.85 18.4414 160.576 18.2017 160.264 18.0217C159.952 17.8418 159.607 17.7251 159.25 17.6784C158.892 17.6317 158.529 17.6559 158.181 17.7495L123.413 27.0775C122.71 27.2672 122.111 27.7284 121.748 28.3597C121.384 28.991 121.286 29.7407 121.476 30.4441L126.275 48.2945C126.464 48.9976 126.924 49.597 127.555 49.9611C128.185 50.3252 128.934 50.4242 129.638 50.2364L134.543 48.9178L141.298 52.8058L139.86 47.4889L164.41 40.8914C165.11 40.7016 165.707 40.2424 166.07 39.614C166.433 38.9857 166.533 38.2392 166.348 37.5376Z" fill="black"/>
<path d="M180.513 74.9129L182.37 62.8289C182.443 62.3532 182.325 61.868 182.04 61.48C181.755 61.092 181.328 60.8329 180.853 60.7598L157.304 57.1388C157.068 57.1021 156.827 57.1122 156.596 57.1687C156.364 57.2252 156.146 57.3268 155.954 57.4679C155.761 57.6089 155.599 57.7865 155.475 57.9906C155.352 58.1946 155.27 58.421 155.234 58.6567L153.373 70.7407C153.3 71.2164 153.419 71.7016 153.704 72.0896C153.988 72.4777 154.415 72.7367 154.891 72.8099L158.211 73.3229L161.259 77.4781L161.815 73.8741L178.427 76.4181C178.663 76.4568 178.904 76.4486 179.137 76.3938C179.37 76.339 179.589 76.2388 179.783 76.099C179.977 75.9591 180.141 75.7823 180.267 75.5788C180.392 75.3752 180.476 75.1489 180.513 74.9129Z" fill="#065C61"/>
<path opacity="0.3" d="M180.513 74.9129L182.37 62.8289C182.443 62.3532 182.325 61.868 182.04 61.48C181.755 61.092 181.328 60.8329 180.853 60.7598L157.304 57.1388C157.068 57.1021 156.827 57.1122 156.596 57.1687C156.364 57.2252 156.146 57.3268 155.954 57.4679C155.761 57.6089 155.599 57.7865 155.475 57.9906C155.352 58.1946 155.27 58.421 155.234 58.6567L153.373 70.7407C153.3 71.2164 153.419 71.7016 153.704 72.0896C153.988 72.4777 154.415 72.7367 154.891 72.8099L158.211 73.3229L161.259 77.4781L161.815 73.8741L178.427 76.4181C178.663 76.4568 178.904 76.4486 179.137 76.3938C179.37 76.339 179.589 76.2388 179.783 76.099C179.977 75.9591 180.141 75.7823 180.267 75.5788C180.392 75.3752 180.476 75.1489 180.513 74.9129Z" fill="white"/>
<path d="M179.678 55.3243L176.651 33.7003C176.531 32.8474 176.077 32.077 175.389 31.5586C174.701 31.0401 173.836 30.8161 172.983 30.9358L130.833 36.8294C129.98 36.9492 129.21 37.403 128.691 38.0907C128.173 38.7785 127.949 39.6441 128.069 40.497L131.096 62.121C131.154 62.5434 131.295 62.9501 131.511 63.3178C131.727 63.6856 132.013 64.0071 132.354 64.2639C132.694 64.5207 133.082 64.7079 133.495 64.8145C133.907 64.9212 134.337 64.9453 134.759 64.8855L140.695 64.0375L148.052 69.5877L147.149 63.1344L176.901 58.9749C177.752 58.857 178.522 58.4067 179.043 57.7226C179.563 57.0386 179.791 56.1763 179.678 55.3243Z" fill="#065C61"/>
<path d="M135.014 46.3273L137.401 45.9924L141.153 50.1306L140.513 45.5557L142.921 45.2207L144.079 53.4887L141.67 53.8279L137.939 49.7193L138.575 54.2604L136.171 54.5953L135.014 46.3273Z" fill="white"/>
<path d="M144.613 44.9836L151.465 44.0254L151.711 45.7935L147.424 46.3913L147.607 47.7057L151.584 47.1503L151.821 48.8463L147.844 49.4017L148.069 51.0299L152.483 50.4151L152.746 52.2849L145.771 53.2601L144.613 44.9836Z" fill="white"/>
<path d="M152.114 43.9361L154.539 43.5969L156.061 48.104L156.693 43.2958L159.11 42.9566L161.039 47.4002L161.268 42.6556L163.68 42.3164L163.015 50.843L160.509 51.1907L158.33 46.1875L157.613 51.5978L155.107 51.9454L152.114 43.9361Z" fill="white"/>
<path d="M164.842 47.794L167.255 47.3022C167.321 47.6166 167.467 47.9087 167.679 48.1502C167.838 48.2978 168.029 48.4059 168.238 48.4655C168.446 48.5252 168.666 48.5348 168.879 48.4936C169.185 48.4712 169.472 48.3368 169.685 48.1163C169.766 48.0331 169.827 47.9328 169.865 47.8227C169.902 47.7127 169.914 47.5957 169.901 47.4803C169.882 47.3701 169.84 47.2653 169.777 47.1731C169.714 47.0809 169.632 47.0034 169.536 46.946C169.105 46.749 168.636 46.6478 168.162 46.6492C167.273 46.6296 166.402 46.4001 165.618 45.9793C165.359 45.8171 165.14 45.5988 164.976 45.3405C164.812 45.0822 164.709 44.7905 164.673 44.4868C164.611 44.052 164.682 43.6088 164.876 43.2148C165.094 42.7766 165.436 42.4123 165.86 42.1675C166.476 41.835 167.152 41.6288 167.849 41.5612C168.689 41.3898 169.561 41.477 170.35 41.8114C170.671 41.9941 170.949 42.244 171.165 42.5441C171.381 42.8441 171.53 43.1871 171.601 43.5498L169.214 44.0289C169.138 43.7221 168.954 43.4528 168.697 43.2699C168.426 43.1243 168.113 43.0764 167.81 43.1343C167.569 43.15 167.341 43.2506 167.166 43.4183C167.103 43.4827 167.056 43.5604 167.029 43.6456C167.001 43.7309 166.992 43.8213 167.005 43.9102C167.017 43.9797 167.044 44.0455 167.086 44.1028C167.127 44.1601 167.18 44.2073 167.242 44.2409C167.525 44.3659 167.832 44.4281 168.141 44.4232C168.988 44.457 169.827 44.5893 170.643 44.8175C171.101 44.9594 171.511 45.2267 171.826 45.5892C172.099 45.9281 172.272 46.3362 172.326 46.7679C172.402 47.2886 172.321 47.8202 172.093 48.2943C171.856 48.7896 171.479 49.2041 171.007 49.4858C170.408 49.8251 169.746 50.0373 169.061 50.1091C167.648 50.3069 166.636 50.1656 166.025 49.6851C165.421 49.2134 165.002 48.5438 164.842 47.794Z" fill="white"/>
</svg>
