<svg width="186" height="155" viewBox="0 0 186 155" fill="none" xmlns="http://www.w3.org/2000/svg">
<path d="M186 77.5681C186 67.3961 180.679 58.1978 172.089 51.5904C172.374 50.2468 172.52 48.8775 172.524 47.5042C172.524 33.9415 158.735 22.9175 141.573 22.6045C136.357 9.47649 120.847 0 102.45 0C87.8095 0 74.9597 6.05104 67.6741 15.145C65.8358 14.8935 63.9828 14.7657 62.1274 14.7625C44.635 14.7625 30.4463 25.9256 30.4463 39.6969C30.4448 42.0288 30.8569 44.3425 31.6635 46.5304C20.5177 52.3902 13.1626 62.3709 13.1626 73.708C13.1626 84.6277 19.9787 94.278 30.4463 100.207V100.555C30.4463 113.927 43.8003 124.898 60.5972 125.455C69.8477 134.497 84.0363 140.287 99.9464 140.287C110.393 140.377 120.681 137.727 129.784 132.601C131.216 132.762 132.656 132.843 134.096 132.845C151.589 132.845 165.778 121.682 165.778 107.91V107.667C178.019 101.059 186 90.0527 186 77.5681Z" fill="#065C61"/>
<path d="M11.7891 150.789C11.7891 153.067 9.14609 154.91 5.89452 154.91C2.64296 154.91 0 153.067 0 150.789C0 148.511 2.64296 146.668 5.89452 146.668C9.14609 146.668 11.7891 148.511 11.7891 150.789Z" fill="#065C61"/>
<path d="M52.6164 140.948C52.6164 147.538 44.9482 152.876 35.4891 152.876C26.03 152.876 18.4141 147.573 18.4141 140.948C18.4141 134.323 26.0822 129.02 35.5413 129.02C45.0004 129.02 52.6164 134.41 52.6164 140.948Z" fill="#065C61"/>
<path opacity="0.7" d="M186 77.5681C186 67.3961 180.679 58.1978 172.089 51.5904C172.374 50.2468 172.52 48.8775 172.524 47.5042C172.524 33.9415 158.735 22.9175 141.573 22.6045C136.357 9.47649 120.847 0 102.45 0C87.8095 0 74.9597 6.05104 67.6741 15.145C65.8358 14.8935 63.9828 14.7657 62.1274 14.7625C44.635 14.7625 30.4463 25.9256 30.4463 39.6969C30.4448 42.0288 30.8569 44.3425 31.6635 46.5304C20.5177 52.3902 13.1626 62.3709 13.1626 73.708C13.1626 84.6277 19.9787 94.278 30.4463 100.207V100.555C30.4463 113.927 43.8003 124.898 60.5972 125.455C69.8477 134.497 84.0363 140.287 99.9464 140.287C110.393 140.377 120.681 137.727 129.784 132.601C131.216 132.762 132.656 132.843 134.096 132.845C151.589 132.845 165.778 121.682 165.778 107.91V107.667C178.019 101.059 186 90.0527 186 77.5681Z" fill="white"/>
<path opacity="0.7" d="M11.7891 150.789C11.7891 153.067 9.14609 154.91 5.89452 154.91C2.64296 154.91 0 153.067 0 150.789C0 148.511 2.64296 146.668 5.89452 146.668C9.14609 146.668 11.7891 148.511 11.7891 150.789Z" fill="white"/>
<path opacity="0.7" d="M52.6164 140.948C52.6164 147.538 44.9482 152.876 35.4891 152.876C26.03 152.876 18.4141 147.573 18.4141 140.948C18.4141 134.323 26.0822 129.02 35.5413 129.02C45.0004 129.02 52.6164 134.41 52.6164 140.948Z" fill="white"/>
<path d="M100.451 25.1787C117.369 25.1787 127.837 33.125 127.837 47.2615C127.837 66.3884 108.397 68.8401 108.397 83.6026H91.6177C91.6177 64.1801 107.145 63.0325 107.145 50.9304C107.145 45.714 103.859 43.2275 98.3121 43.2275C92.122 43.2275 88.8356 46.879 88.7139 54.4602H71.4302C71.5519 35.9071 82.402 25.1787 100.451 25.1787ZM110.571 104.068C110.571 106.932 109.433 109.679 107.408 111.704C105.383 113.729 102.637 114.866 99.7727 114.866C96.9089 114.866 94.1624 113.729 92.1374 111.704C90.1124 109.679 88.9747 106.932 88.9747 104.068C88.9747 101.205 90.1124 98.458 92.1374 96.433C94.1624 94.408 96.9089 93.2703 99.7727 93.2703C102.637 93.2703 105.383 94.408 107.408 96.433C109.433 98.458 110.571 101.205 110.571 104.068Z" fill="#065C61"/>
</svg>
